<svg width="70" height="70" viewBox="0 0 70 70" fill="none" xmlns="http://www.w3.org/2000/svg">
<path d="M3.28125 3.28125H66.7188V66.7188H3.28125V3.28125Z" fill="#73AFFF"/>
<path d="M66.7188 14.2188V66.7188H3.28125V27.3438C4.29202 27.3434 5.28913 27.5773 6.19433 28.027C7.09952 28.4768 7.88819 29.1302 8.49844 29.9359C9.09141 28.9682 9.97274 28.2106 11.0185 27.7697C12.0644 27.3287 13.222 27.2266 14.3289 27.4777C15.4357 27.7287 16.4361 28.3204 17.1893 29.1694C17.9425 30.0184 18.4107 31.0821 18.5281 32.2109C19.0162 31.6167 19.6533 31.1627 20.3744 30.8954C21.0954 30.628 21.8745 30.5569 22.632 30.6893C23.3895 30.8217 24.0983 31.1528 24.6859 31.6488C25.2735 32.1448 25.7189 32.788 25.9766 33.5125C26.6751 31.9972 27.7932 30.7138 29.1986 29.8143C30.604 28.9149 32.2377 28.4371 33.9062 28.4375C35.5839 28.4347 37.2259 28.9213 38.6312 29.8375C39.0157 28.7881 39.7124 27.8818 40.6276 27.2403C41.5427 26.5989 42.6324 26.2533 43.75 26.25C44.5159 26.251 45.2728 26.415 45.9703 26.7313C46.0828 25.5073 46.5374 24.3398 47.2822 23.362C48.027 22.3843 49.0318 21.6359 50.1819 21.2023C51.332 20.7687 52.5808 20.6675 53.7857 20.9103C54.9906 21.153 56.1028 21.7299 56.9953 22.575C57.3507 20.2503 58.5266 18.1296 60.3101 16.5969C62.0937 15.0641 64.3671 14.2205 66.7188 14.2188Z" fill="#D4E6FF"/>
<path d="M10.8526 20.3633L8.85208 17.5962C8.75225 17.4581 8.68602 17.2987 8.6587 17.1306C8.63137 16.9624 8.64369 16.7902 8.69468 16.6277C8.74567 16.4652 8.83392 16.3168 8.9524 16.1944C9.07087 16.072 9.2163 15.979 9.37708 15.9227L10.4577 15.5443C10.7265 15.4512 11.0208 15.4657 11.2791 15.5848L16.9666 18.224L10.8526 20.3633Z" fill="white"/>
<path d="M10.8516 20.3634L34.4197 12.1198C37.4018 11.0518 40.5756 10.6243 43.7341 10.8653C45.5278 11.0162 47.1094 11.3903 47.3981 12.2161C47.8958 13.638 43.4869 16.7792 35.8459 19.9106C28.8358 22.7849 21.0661 23.2334 13.7719 21.1848L10.8516 20.3634Z" fill="#E4ECF5"/>
<path d="M26.3892 18.4057L18.8861 11.1191C18.7524 10.9892 18.6542 10.8272 18.6007 10.6487C18.5472 10.4701 18.5402 10.2809 18.5804 10.0989C18.6207 9.91686 18.7067 9.74815 18.8305 9.60875C18.9542 9.46935 19.1115 9.36389 19.2875 9.30237L21.102 8.668C21.3577 8.57848 21.6375 8.58705 21.8873 8.69206L36.5326 14.8575L26.3892 18.4057Z" fill="white"/>
<path d="M66.7188 37.1875V66.7187H3.28125V40.4687C4.9278 40.4671 6.53078 40.9976 7.85132 41.9811C9.17186 42.9647 10.1393 44.3485 10.6094 45.9265C11.6812 45.2215 12.9358 44.8451 14.2188 44.8437C15.4201 44.8417 16.5982 45.175 17.6203 45.8062C17.8735 44.4636 18.54 43.2337 19.5267 42.2885C20.5134 41.3434 21.7708 40.7303 23.1231 40.5351C24.4754 40.3398 25.8549 40.5722 27.0686 41.1996C28.2823 41.827 29.2695 42.8182 29.8922 44.0343C30.6324 43.4592 31.4874 43.0496 32.3995 42.8333C33.3116 42.617 34.2595 42.5989 35.1792 42.7804C36.0989 42.9618 36.9689 43.3385 37.7305 43.8851C38.492 44.4316 39.1274 45.1352 39.5938 45.9484C40.026 43.8133 41.0865 41.856 42.639 40.3278C44.1915 38.7996 46.1653 37.7702 48.307 37.3717C50.4487 36.9732 52.6606 37.2239 54.6589 38.0914C56.6572 38.9589 58.3506 40.4038 59.5219 42.2406C60.0581 40.7617 61.0363 39.4835 62.3237 38.5795C63.6112 37.6756 65.1456 37.1896 66.7188 37.1875Z" fill="white"/>
<path d="M14.2188 26.25H55.7812C56.3614 26.25 56.9178 26.4805 57.328 26.8907C57.7383 27.3009 57.9688 27.8573 57.9688 28.4375V35H12.0312V28.4375C12.0312 27.8573 12.2617 27.3009 12.672 26.8907C13.0822 26.4805 13.6386 26.25 14.2188 26.25Z" fill="#FFB53B"/>
<path d="M17.5 32.8125C18.7081 32.8125 19.6875 31.8331 19.6875 30.625C19.6875 29.4169 18.7081 28.4375 17.5 28.4375C16.2919 28.4375 15.3125 29.4169 15.3125 30.625C15.3125 31.8331 16.2919 32.8125 17.5 32.8125Z" fill="#6C54FF"/>
<path d="M24.0625 32.8125C25.2706 32.8125 26.25 31.8331 26.25 30.625C26.25 29.4169 25.2706 28.4375 24.0625 28.4375C22.8544 28.4375 21.875 29.4169 21.875 30.625C21.875 31.8331 22.8544 32.8125 24.0625 32.8125Z" fill="#6C54FF"/>
<path d="M30.625 32.8125C31.8331 32.8125 32.8125 31.8331 32.8125 30.625C32.8125 29.4169 31.8331 28.4375 30.625 28.4375C29.4169 28.4375 28.4375 29.4169 28.4375 30.625C28.4375 31.8331 29.4169 32.8125 30.625 32.8125Z" fill="#6C54FF"/>
<path d="M12.0312 35H57.9688V61.25C57.9688 61.8302 57.7383 62.3866 57.328 62.7968C56.9178 63.207 56.3614 63.4375 55.7812 63.4375H14.2188C13.6386 63.4375 13.0822 63.207 12.672 62.7968C12.2617 62.3866 12.0312 61.8302 12.0312 61.25V35Z" fill="#FFD63B"/>
<path d="M21.875 45.3906V40.6C21.875 39.985 22.1193 39.3952 22.5541 38.9604C22.989 38.5255 23.5788 38.2813 24.1938 38.2812C24.8085 38.2815 25.398 38.526 25.8326 38.9608C26.2673 39.3956 26.5114 39.9852 26.5114 40.6V45.3906L32.1562 47.8395C32.3514 47.9247 32.5174 48.065 32.634 48.2431C32.7506 48.4213 32.8126 48.6296 32.8125 48.8425V49.5337C32.8126 49.7013 32.7741 49.8666 32.7002 50.0169C32.6262 50.1672 32.5187 50.2986 32.386 50.4008C32.2532 50.503 32.0988 50.5733 31.9346 50.6063C31.7703 50.6394 31.6007 50.6343 31.4387 50.5914L26.25 49.2188V56.875L27.3645 57.9895C27.4867 58.1121 27.5781 58.2619 27.6311 58.4267C27.6842 58.5914 27.6973 58.7664 27.6696 58.9372C27.6418 59.108 27.5739 59.2698 27.4714 59.4093C27.369 59.5488 27.2349 59.662 27.0802 59.7395L26.7389 59.9102C26.5871 59.986 26.4197 60.0255 26.25 60.0255C26.0803 60.0255 25.9129 59.986 25.7611 59.9102L24.0625 59.0625L22.3639 59.9113C22.2121 59.9871 22.0447 60.0266 21.875 60.0266C21.7053 60.0266 21.5379 59.9871 21.3861 59.9113L21.0448 59.7406C20.8901 59.6631 20.756 59.5499 20.6536 59.4104C20.5511 59.2709 20.4832 59.1091 20.4554 58.9383C20.4277 58.7675 20.4408 58.5925 20.4939 58.4277C20.5469 58.263 20.6383 58.1132 20.7605 57.9906L21.875 56.875V49.3139L16.7344 50.9545C16.5707 51.006 16.3973 51.0182 16.228 50.9903C16.0587 50.9623 15.8984 50.895 15.76 50.7936C15.6216 50.6922 15.509 50.5597 15.4313 50.4068C15.3535 50.2539 15.3128 50.0848 15.3125 49.9133V49.0284C15.3126 48.8171 15.3739 48.6104 15.489 48.4331C15.6041 48.2559 15.7681 48.1158 15.9611 48.0298L21.875 45.3906Z" fill="#8C7AFF"/>
<path d="M53.5938 38.2812H37.1875C36.5834 38.2812 36.0938 38.7709 36.0938 39.375V51.4062C36.0938 52.0103 36.5834 52.5 37.1875 52.5H53.5938C54.1978 52.5 54.6875 52.0103 54.6875 51.4062V39.375C54.6875 38.7709 54.1978 38.2812 53.5938 38.2812Z" fill="#DBD6FF"/>
<path d="M45.9375 42.6562H39.375C39.0849 42.6562 38.8067 42.541 38.6016 42.3359C38.3965 42.1308 38.2812 41.8526 38.2812 41.5625C38.2812 41.2724 38.3965 40.9942 38.6016 40.7891C38.8067 40.584 39.0849 40.4688 39.375 40.4688H45.9375C46.2276 40.4688 46.5058 40.584 46.7109 40.7891C46.916 40.9942 47.0312 41.2724 47.0312 41.5625C47.0312 41.8526 46.916 42.1308 46.7109 42.3359C46.5058 42.541 46.2276 42.6562 45.9375 42.6562Z" fill="#FFF5D0"/>
<path d="M51.4062 45.9375H39.375C39.0849 45.9375 38.8067 45.8223 38.6016 45.6171C38.3965 45.412 38.2812 45.1338 38.2812 44.8438C38.2812 44.5537 38.3965 44.2755 38.6016 44.0704C38.8067 43.8652 39.0849 43.75 39.375 43.75H51.4062C51.6963 43.75 51.9745 43.8652 52.1796 44.0704C52.3848 44.2755 52.5 44.5537 52.5 44.8438C52.5 45.1338 52.3848 45.412 52.1796 45.6171C51.9745 45.8223 51.6963 45.9375 51.4062 45.9375Z" fill="#FFF5D0"/>
<path d="M51.4062 49.2188H39.375C39.0849 49.2188 38.8067 49.1035 38.6016 48.8984C38.3965 48.6933 38.2812 48.4151 38.2812 48.125C38.2812 47.8349 38.3965 47.5567 38.6016 47.3516C38.8067 47.1465 39.0849 47.0312 39.375 47.0312H51.4062C51.6963 47.0312 51.9745 47.1465 52.1796 47.3516C52.3848 47.5567 52.5 47.8349 52.5 48.125C52.5 48.4151 52.3848 48.6933 52.1796 48.8984C51.9745 49.1035 51.6963 49.2188 51.4062 49.2188Z" fill="#FFF5D0"/>
<path d="M50.3125 55.7812H41.5625C40.3544 55.7812 39.375 56.7606 39.375 57.9688C39.375 59.1769 40.3544 60.1562 41.5625 60.1562H50.3125C51.5206 60.1562 52.5 59.1769 52.5 57.9688C52.5 56.7606 51.5206 55.7812 50.3125 55.7812Z" fill="#FFB53B"/>
</svg>
