<svg width="70" height="70" viewBox="0 0 70 70" fill="none" xmlns="http://www.w3.org/2000/svg">
<g clip-path="url(#clip0_33_898)">
<path d="M55.5933 70H0V17.5H70V55.5933L55.5933 70Z" fill="#E4EDFB"/>
<path d="M0 17.5H70V26.25H0V17.5Z" fill="#D7E1F2"/>
<path d="M13.125 8.75H8.75V2.1875C8.75 0.979462 9.72946 0 10.9375 0C12.1455 0 13.125 0.979462 13.125 2.1875V8.75Z" fill="#BFC9D1"/>
<path d="M61.25 8.75H56.875V2.1875C56.875 0.979462 57.8545 0 59.0625 0C60.2705 0 61.25 0.979462 61.25 2.1875V8.75Z" fill="#BFC9D1"/>
<path d="M55.5938 55.5933V70L70.0005 55.5933H55.5938Z" fill="#C8D5E8"/>
<path d="M30.7864 55.4315L20.0284 46.8257C19.0847 46.0705 18.9314 44.6937 19.6871 43.75C20.4423 42.8063 21.8191 42.6531 22.7627 43.4088L30.4628 49.5686L47.2188 32.8125C48.0733 31.9586 49.4582 31.9586 50.3121 32.8125C51.1661 33.6665 51.1661 35.0513 50.3121 35.9058L30.7864 55.4315Z" fill="#0AC1A7"/>
<path d="M70 21.875H0V10.9375C0 8.52142 1.95892 6.5625 4.375 6.5625H65.625C68.0411 6.5625 70 8.52142 70 10.9375V21.875Z" fill="#FF7761"/>
</g>
<defs>
<clipPath id="clip0_33_898">
<rect width="70" height="70" fill="white"/>
</clipPath>
</defs>
</svg>
