<svg width="70" height="70" viewBox="0 0 70 70" fill="none" xmlns="http://www.w3.org/2000/svg">
<path fill-rule="evenodd" clip-rule="evenodd" d="M24.6875 48.0871H45.3125V59.8351H24.6875V48.0871Z" fill="#A79BA7"/>
<path fill-rule="evenodd" clip-rule="evenodd" d="M43.7129 48.0871H45.3124V59.8351H43.7129V48.0871Z" fill="#837683"/>
<path fill-rule="evenodd" clip-rule="evenodd" d="M12.7051 64.8438H57.293V61.4063C57.293 59.5157 55.3571 57.9689 52.9908 57.9689H17.0073C14.641 57.9689 12.7051 59.5157 12.7051 61.4063V64.8438Z" fill="#ECEFF1"/>
<path fill-rule="evenodd" clip-rule="evenodd" d="M12.7051 64.8438H57.293V61.4063C57.293 60.2827 56.6092 59.2806 55.5577 58.6523C55.794 59.077 55.9257 59.5463 55.9257 60.0391V63.4766H12.7051V64.8438Z" fill="#D1D1D6"/>
<path fill-rule="evenodd" clip-rule="evenodd" d="M7.23242 5.15619H62.7674C65.5423 5.15619 67.8125 7.42654 67.8125 10.2012V44.9084C67.8125 47.6831 65.5421 49.9535 62.7674 49.9535H7.23242C4.45772 49.9535 2.1875 47.6832 2.1875 44.9084V10.2012C2.1875 7.4264 4.45772 5.15619 7.23242 5.15619Z" fill="#ECEFF1"/>
<path fill-rule="evenodd" clip-rule="evenodd" d="M65.5813 6.01984C66.9246 6.92874 67.8121 8.46642 67.8121 10.2012V44.9084C67.8121 47.6831 65.5418 49.9534 62.7671 49.9534H7.23205C5.49723 49.9534 3.95969 49.066 3.05078 47.7226C3.85592 48.2673 4.82498 48.5861 5.86486 48.5861H61.3999C64.1746 48.5861 66.4449 46.3159 66.4449 43.5412V8.83406C66.4449 7.79417 66.126 6.82511 65.5813 6.01984Z" fill="#D1D1D6"/>
<path fill-rule="evenodd" clip-rule="evenodd" d="M7.10598 9.37494H62.8941C63.2789 9.37494 63.5938 9.69008 63.5938 10.0747V41.4915H6.40625V10.0747C6.40625 9.68994 6.72111 9.37494 7.10598 9.37494Z" fill="#D8ECFE"/>
<path fill-rule="evenodd" clip-rule="evenodd" d="M60.1602 9.37494H62.8947C63.2795 9.37494 63.5944 9.69008 63.5944 10.0747V41.4915H60.8599V10.0747C60.8599 9.68994 60.545 9.37494 60.1602 9.37494Z" fill="#C4E2FF"/>
<path fill-rule="evenodd" clip-rule="evenodd" d="M25.1983 33.256H27.4935C28.0385 33.256 28.4828 33.7005 28.4828 34.2453V40.466C28.4828 41.0109 28.0383 41.4553 27.4935 41.4553H25.1983C24.6533 41.4553 24.209 41.0108 24.209 40.466V34.2453C24.209 33.7005 24.6533 33.256 25.1983 33.256Z" fill="#FE646F"/>
<path fill-rule="evenodd" clip-rule="evenodd" d="M26.2578 33.256H27.4946C28.0394 33.256 28.4839 33.7005 28.4839 34.2453V40.466C28.4839 41.0109 28.0394 41.4553 27.4946 41.4553H26.2578C26.8028 41.4553 27.2471 41.0108 27.2471 40.466V34.2453C27.2471 33.7005 26.8026 33.256 26.2578 33.256Z" fill="#FD4755"/>
<path fill-rule="evenodd" clip-rule="evenodd" d="M34.3018 26.0453H36.597C37.142 26.0453 37.5863 26.4898 37.5863 27.0346V40.466C37.5863 41.0109 37.142 41.4553 36.597 41.4553H34.3018C33.7568 41.4553 33.3125 41.0108 33.3125 40.466V27.0346C33.3125 26.4898 33.757 26.0453 34.3018 26.0453Z" fill="#FFE177"/>
<path fill-rule="evenodd" clip-rule="evenodd" d="M35.3594 26.0453H36.5961C37.1411 26.0453 37.5854 26.4898 37.5854 27.0346V40.466C37.5854 41.0109 37.1411 41.4553 36.5961 41.4553H35.3594C35.9043 41.4553 36.3487 41.0108 36.3487 40.466V27.0346C36.3487 26.4898 35.9043 26.0453 35.3594 26.0453Z" fill="#FFD064"/>
<path fill-rule="evenodd" clip-rule="evenodd" d="M43.4053 28.9601H45.7007C46.2456 28.9601 46.69 29.4046 46.69 29.9494V40.466C46.69 41.0109 46.2455 41.4553 45.7007 41.4553C44.9356 41.4553 44.1704 41.4553 43.4053 41.4553C42.8604 41.4553 42.416 41.0108 42.416 40.466C42.416 36.7672 42.416 33.6482 42.416 29.9494C42.416 29.4046 42.8604 28.9601 43.4053 28.9601Z" fill="#6CF5C2"/>
<path fill-rule="evenodd" clip-rule="evenodd" d="M44.4629 28.9601H45.6996C46.2446 28.9601 46.6889 29.4046 46.6889 29.9494V40.466C46.6889 41.0109 46.2446 41.4554 45.6996 41.4554H44.4629C45.0079 41.4554 45.4523 41.0109 45.4522 40.466C45.4522 36.7672 45.4522 33.6482 45.4522 29.9494C45.4523 29.4046 45.0077 28.9601 44.4629 28.9601Z" fill="#00E499"/>
<path fill-rule="evenodd" clip-rule="evenodd" d="M52.5069 20.439H54.8022C55.3472 20.439 55.7915 20.8833 55.7915 21.4283V40.4659C55.7915 41.0108 55.3472 41.4552 54.8022 41.4552H52.5069C51.9619 41.4552 51.5176 41.0108 51.5176 40.4659V21.4283C51.5176 20.8833 51.9619 20.439 52.5069 20.439Z" fill="#8AC9FE"/>
<path fill-rule="evenodd" clip-rule="evenodd" d="M53.5664 20.439H54.8032C55.3481 20.439 55.7925 20.8833 55.7925 21.4283V40.4659C55.7925 41.0109 55.348 41.4552 54.8032 41.4552H53.5664C54.1114 41.4552 54.5557 41.0108 54.5557 40.4659V21.4283C54.5557 20.8833 54.1112 20.439 53.5664 20.439Z" fill="#60B7FF"/>
<path fill-rule="evenodd" clip-rule="evenodd" d="M27.0044 25.8506C26.5255 26.214 25.8426 26.1202 25.4792 25.6413C25.1158 25.1624 25.2096 24.4794 25.6885 24.116L34.7915 17.2041C35.1149 16.9588 35.5312 16.9219 35.8794 17.0711L35.881 17.0672L44.3389 20.7042L49.978 15.574L49.4084 15.576C48.8067 15.576 48.3189 15.0882 48.3189 14.4865C48.3189 13.8848 48.8067 13.397 49.4084 13.397L52.8094 13.3846C53.4111 13.3846 53.8989 13.8724 53.8989 14.4741C53.8989 14.5455 53.892 14.6153 53.8788 14.6829L53.8818 14.6834L53.2223 18.0199C53.1066 18.6122 52.5328 18.9985 51.9406 18.8829C51.3483 18.7672 50.9619 18.1934 51.0776 17.6011L51.0958 17.5091L45.3261 22.7582C45.0192 23.0652 44.5446 23.1715 44.1213 22.9896L35.5988 19.3249L27.0044 25.8506Z" fill="#A79BA7"/>
<path fill-rule="evenodd" clip-rule="evenodd" d="M20.8445 15.4093C21.5923 15.5873 22.3067 15.8837 22.9613 16.2869L24.3368 15.676L25.958 17.2972L25.3473 18.6723C25.7505 19.3271 26.047 20.0416 26.225 20.7897L27.6285 21.3299V23.6225L26.2248 24.1628C26.0468 24.9107 25.7502 25.625 25.3472 26.2796L25.9582 27.6552L24.337 29.2764L22.9618 28.6656C22.3071 29.0688 21.5926 29.3654 20.8445 29.5434L20.3043 30.9467H18.0117L17.4713 29.543C16.7235 29.365 16.0091 29.0684 15.3545 28.6654L13.979 29.2762L12.3578 27.655L12.9685 26.2799C12.5653 25.6252 12.2688 24.9105 12.0908 24.1625L10.6875 23.6224V21.3296L12.0911 20.7894C12.2691 20.0414 12.5656 19.3271 12.9687 18.6725L12.3578 17.2971L13.979 15.6759L15.3545 16.2867C16.0091 15.8837 16.7235 15.5871 17.4713 15.4091L18.0117 14.0054H20.3043L20.8445 15.4093Z" fill="#FFE177"/>
<path fill-rule="evenodd" clip-rule="evenodd" d="M15.3549 28.6652L13.9794 29.2761L13.7676 29.0643L15.0572 28.4916C15.1551 28.5519 15.2544 28.6097 15.3549 28.6652ZM20.845 15.4092C21.5928 15.5873 22.3072 15.8837 22.9618 16.2868L22.5708 16.4605C21.9162 16.0574 20.9042 15.5873 20.1563 15.4092L19.616 14.0056H20.3046L20.845 15.4092ZM22.9622 28.6654C22.3074 29.0685 21.5929 29.3651 20.8448 29.5431L20.3046 30.9464H19.616L20.1562 29.5431C20.9043 29.3651 21.9164 28.8949 22.5712 28.4917L22.9622 28.6654ZM13.7676 15.8876L13.9794 15.6758L15.3549 16.2867C15.2544 16.3422 15.1551 16.4 15.0572 16.4603L13.7676 15.8876ZM23.8603 15.8876L24.3372 15.6758L25.9584 17.2971L25.3477 18.6722C25.7508 19.3269 26.0474 20.0414 26.2254 20.7895L27.6288 21.3297V23.6224L26.2251 24.1627C26.0471 24.9105 25.7506 25.6249 25.3475 26.2795L25.9585 27.655L24.3373 29.2762L23.8604 29.0644L25.2697 27.655L24.6589 26.2795C25.0619 25.6249 25.3585 24.9107 25.5365 24.1627L26.9402 23.6224V21.3297L25.5367 20.7895C25.3587 20.0414 25.0623 19.3269 24.659 18.6722L25.2697 17.2971L23.8603 15.8876Z" fill="#FFD064"/>
<path d="M19.1584 26.4742C21.3665 26.4742 23.1566 24.6841 23.1566 22.476C23.1566 20.2678 21.3665 18.4778 19.1584 18.4778C16.9502 18.4778 15.1602 20.2678 15.1602 22.476C15.1602 24.6841 16.9502 26.4742 19.1584 26.4742Z" fill="#ECEFF1"/>
<path fill-rule="evenodd" clip-rule="evenodd" d="M19.1582 18.4778C16.9499 18.4778 15.1602 20.2676 15.1602 22.476C15.1602 24.6843 16.9501 26.4741 19.1582 26.4741C19.2653 26.4741 19.3714 26.4697 19.4762 26.4615C17.4167 26.2995 15.796 24.5772 15.796 22.476C15.796 20.3748 17.4166 18.6524 19.4762 18.4904C19.3714 18.4822 19.2653 18.4778 19.1582 18.4778Z" fill="#D1D1D6"/>
</svg>
