<svg width="42" height="42" viewBox="0 0 42 42" fill="none" xmlns="http://www.w3.org/2000/svg">
<path d="M18.55 24.15L14.7438 20.3438C14.4229 20.0229 14.0292 19.8625 13.5625 19.8625C13.0958 19.8625 12.6875 20.0375 12.3375 20.3875C12.0167 20.7083 11.8562 21.1167 11.8562 21.6125C11.8562 22.1083 12.0167 22.5167 12.3375 22.8375L17.325 27.825C17.6458 28.1458 18.0542 28.3062 18.55 28.3062C19.0458 28.3062 19.4542 28.1458 19.775 27.825L29.7063 17.8938C30.0271 17.5729 30.1875 17.1792 30.1875 16.7125C30.1875 16.2458 30.0125 15.8375 29.6625 15.4875C29.3417 15.1667 28.9333 15.0062 28.4375 15.0062C27.9417 15.0062 27.5333 15.1667 27.2125 15.4875L18.55 24.15ZM21 38.5C18.5792 38.5 16.3042 38.0403 14.175 37.121C12.0458 36.2017 10.1938 34.9551 8.61875 33.3813C7.04375 31.8063 5.79717 29.9542 4.879 27.825C3.96083 25.6958 3.50117 23.4208 3.5 21C3.5 18.5792 3.95967 16.3042 4.879 14.175C5.79833 12.0458 7.04492 10.1938 8.61875 8.61875C10.1938 7.04375 12.0458 5.79717 14.175 4.879C16.3042 3.96083 18.5792 3.50117 21 3.5C23.4208 3.5 25.6958 3.95967 27.825 4.879C29.9542 5.79833 31.8063 7.04492 33.3813 8.61875C34.9563 10.1938 36.2034 12.0458 37.1227 14.175C38.0421 16.3042 38.5012 18.5792 38.5 21C38.5 23.4208 38.0403 25.6958 37.121 27.825C36.2017 29.9542 34.9551 31.8063 33.3813 33.3813C31.8063 34.9563 29.9542 36.2034 27.825 37.1227C25.6958 38.0421 23.4208 38.5012 21 38.5Z" fill="#F68920"/>
</svg>
