<svg width="70" height="70" viewBox="0 0 70 70" fill="none" xmlns="http://www.w3.org/2000/svg">
<g clip-path="url(#clip0_33_1066)">
<path d="M28.4375 48.9129C28.4375 50.8576 30.014 52.4341 31.9587 52.4341H32.8125L21.875 54.6216L13.125 52.4341H13.9788C15.9235 52.4341 17.5 50.8576 17.5 48.9129V43.75H28.4375V48.9129Z" fill="#004281"/>
<path d="M43.8867 45.9375H2.05078C0.918203 45.9375 0 45.0193 0 43.8867V15.1758C0 14.0432 0.918203 13.125 2.05078 13.125H43.8867C45.0193 13.125 45.9375 14.0432 45.9375 15.1758V43.8867C45.9375 45.0193 45.0193 45.9375 43.8867 45.9375Z" fill="#0055A3"/>
<path d="M4.375 17.5H41.5625V41.5625H4.375V17.5Z" fill="#01C0FA"/>
<path d="M13.5193 17.5L13.9662 18.8407C13.6713 19.3974 13.4267 19.9849 13.2381 20.5968L11.5798 21.426C11.1862 21.6229 10.9375 22.0253 10.9375 22.4654V24.7311C10.9375 25.1712 11.1862 25.5735 11.5798 25.7704L13.2381 26.5996C13.4266 27.2117 13.6713 27.799 13.9662 28.3557L13.3796 30.1154C13.2404 30.533 13.3491 30.9933 13.6603 31.3045L15.2623 32.9066C15.5735 33.2177 16.0338 33.3264 16.4514 33.1872L18.2111 32.6006C18.7678 32.8955 19.3553 33.1401 19.9672 33.3288L20.7964 34.987C20.9933 35.3806 21.3957 35.6293 21.8358 35.6293H24.1015C24.5416 35.6293 24.9439 35.3806 25.1408 34.987L25.97 33.3288C26.5821 33.1402 27.1694 32.8955 27.7262 32.6006L29.4859 33.1872C29.9034 33.3264 30.3637 33.2177 30.6749 32.9066L32.277 31.3045C32.5881 30.9933 32.6968 30.533 32.5577 30.1154L31.9711 28.3557C32.266 27.799 32.5106 27.2115 32.6993 26.5996L34.3576 25.7704C34.7512 25.5735 34.9999 25.1712 34.9999 24.7311V22.4654C34.9999 22.0253 34.7512 21.6229 34.3576 21.426L32.6993 20.5968C32.5108 19.9847 32.266 19.3974 31.9711 18.8407L32.4181 17.5H13.5193Z" fill="#08A9F1"/>
<path d="M35.0837 17.5V33.0489C35.0837 36.1951 32.5332 38.7455 29.387 38.7455H4.375V41.5625H41.5625V17.5H35.0837Z" fill="#08A9F1"/>
<path d="M20.166 37.1875H10.459C9.51508 37.1875 8.75 36.4224 8.75 35.4785V23.584C8.75 22.6401 9.51508 21.875 10.459 21.875H20.166C21.1099 21.875 21.875 22.6401 21.875 23.584V35.4785C21.875 36.4224 21.1099 37.1875 20.166 37.1875Z" fill="#FFC344"/>
<path d="M35.4785 37.1875H27.959C27.0151 37.1875 26.25 36.4224 26.25 35.4785V30.1465C26.25 29.2026 27.0151 28.4375 27.959 28.4375H35.4785C36.4224 28.4375 37.1875 29.2026 37.1875 30.1465V35.4785C37.1875 36.4224 36.4224 37.1875 35.4785 37.1875Z" fill="#FD6930"/>
<path d="M26.25 30.198V33.238C26.7616 33.0639 27.2549 32.8502 27.7263 32.6006L29.486 33.1872C29.9035 33.3264 30.3639 33.2177 30.675 32.9066L32.2771 31.3045C32.5883 30.9933 32.697 30.533 32.5578 30.1154L31.9986 28.4375H28.0107C27.0382 28.4375 26.25 29.2257 26.25 30.198Z" fill="#FD5426"/>
<path d="M20.1145 21.875H11.0987C10.9951 22.0505 10.9375 22.2536 10.9375 22.4654V24.7311C10.9375 25.1712 11.1862 25.5735 11.5798 25.7704L13.2381 26.5996C13.4266 27.2117 13.6713 27.799 13.9662 28.3557L13.3796 30.1154C13.2404 30.533 13.3491 30.9933 13.6603 31.3045L15.2623 32.9066C15.5735 33.2177 16.0338 33.3264 16.4514 33.1872L18.2111 32.6006C18.7678 32.8955 19.3553 33.1401 19.9672 33.3288L20.7964 34.987C20.9933 35.3806 21.3957 35.6293 21.8358 35.6293H21.8631C21.8708 35.5629 21.8747 35.4953 21.8747 35.4268V23.6355C21.875 22.6632 21.0868 21.875 20.1145 21.875Z" fill="#FEB237"/>
<path d="M35.4262 28.4375H35.0829V33.0489C35.0829 34.679 34.3982 36.1491 33.3008 37.1875H35.4262C36.3986 37.1875 37.1867 36.3993 37.1867 35.427V30.1982C37.1867 29.2257 36.3986 28.4375 35.4262 28.4375Z" fill="#FD5426"/>
<path d="M34.9996 21.6993V19.863C34.9996 19.2913 34.6765 18.7687 34.1652 18.5131L32.8289 17.8449C32.7458 17.8034 32.6837 17.7297 32.6551 17.6412C32.4882 17.1258 32.2812 16.6284 32.038 16.1528C31.9956 16.0699 31.9874 15.9741 32.0169 15.8857L32.4896 14.4677C32.6703 13.9253 32.5292 13.3273 32.1249 12.9232L30.8265 11.6248C30.4222 11.2205 29.8244 11.0794 29.282 11.2601L27.864 11.7328C27.7756 11.7622 27.6798 11.754 27.597 11.7117C27.1212 11.4685 26.6238 11.2615 26.1085 11.0946C26.02 11.0659 25.9463 11.0039 25.9048 10.9208L25.2366 9.58452C24.981 9.07319 24.4583 8.75012 23.8867 8.75012H22.0504C21.4787 8.75012 20.9561 9.07319 20.7004 9.58452L20.0323 10.9208C19.9907 11.0039 19.9171 11.066 19.8286 11.0946C19.3132 11.2615 18.8158 11.4685 18.3401 11.7117C18.2573 11.7541 18.1614 11.7623 18.0731 11.7328L16.6551 11.2601C16.1127 11.0794 15.5147 11.2205 15.1106 11.6248L13.8121 12.9232C13.4079 13.3275 13.2668 13.9253 13.4475 14.4677L13.9202 15.8857C13.9496 15.9741 13.9413 16.0699 13.8991 16.1528C13.6559 16.6285 13.4489 17.1259 13.282 17.6412C13.2532 17.7297 13.1913 17.8034 13.1082 17.8449L11.7719 18.5131C11.2606 18.7687 10.9375 19.2914 10.9375 19.863V21.6993C10.9375 22.2711 11.2606 22.7936 11.7719 23.0493L13.1082 23.7174C13.1913 23.759 13.2534 23.8327 13.282 23.9211C13.4489 24.4365 13.6559 24.9339 13.8991 25.4096C13.9415 25.4924 13.9497 25.5883 13.9202 25.6766L13.4475 27.0946C13.2668 27.637 13.4079 28.235 13.8121 28.6391L15.1106 29.9376C15.5148 30.3418 16.1127 30.4829 16.6551 30.3022L18.0731 29.8296C18.1614 29.8002 18.2573 29.8084 18.3401 29.8506C18.8159 30.0938 19.3133 30.3008 19.8286 30.4678C19.9171 30.4965 19.9907 30.5584 20.0323 30.6415L20.7004 31.9778C20.9561 32.4891 21.4788 32.8122 22.0504 32.8122H23.8867C24.4584 32.8122 24.981 32.4891 25.2366 31.9778L25.9048 30.6415C25.9463 30.5584 26.02 30.4963 26.1085 30.4678C26.6239 30.3008 27.1213 30.0938 27.597 29.8506C27.6798 29.8082 27.7756 29.8 27.864 29.8296L29.282 30.3022C29.8244 30.4829 30.4224 30.3418 30.8265 29.9376L32.1249 28.6391C32.5292 28.2349 32.6703 27.637 32.4896 27.0946L32.0169 25.6766C31.9875 25.5883 31.9957 25.4924 32.038 25.4096C32.2812 24.9338 32.4882 24.4364 32.6551 23.9211C32.6838 23.8327 32.7458 23.759 32.8289 23.7174L34.1652 23.0493C34.6765 22.7937 34.9996 22.2711 34.9996 21.6993Z" fill="#80D261"/>
<path d="M34.1654 18.5131L32.8291 17.8449C32.746 17.8034 32.6839 17.7297 32.6553 17.6412C32.4884 17.1258 32.2814 16.6284 32.0382 16.1528C31.9958 16.0699 31.9876 15.9741 32.0171 15.8858L32.4897 14.4677C32.6705 13.9254 32.5294 13.3273 32.1251 12.9232L30.8267 11.6248C30.4224 11.2205 29.8245 11.0794 29.2822 11.2602L27.8641 11.7328C27.7758 11.7622 27.68 11.7541 27.5971 11.7117C27.3096 11.5648 27.0142 11.4311 26.7116 11.3114C26.7462 11.7089 26.7011 12.1157 26.5704 12.508L26.5702 12.5084C26.4293 12.9313 26.4446 13.3932 26.627 13.8C26.7068 13.9779 26.7816 14.1583 26.8515 14.3414C27.0098 14.757 27.3259 15.0935 27.7237 15.2924C28.7303 15.7957 29.3661 16.8245 29.3661 17.9498V17.9793C29.3661 19.1047 28.7303 20.1335 27.7237 20.6367C27.3259 20.8357 27.0098 21.1721 26.8515 21.5878C26.7817 21.7708 26.7068 21.9514 26.627 22.1292C26.4445 22.5358 26.4293 22.9979 26.5702 23.4206L26.5704 23.421C26.9263 24.4887 26.6484 25.6657 25.8526 26.4614L25.8317 26.4821C25.036 27.2779 23.8588 27.5558 22.7913 27.1999L22.7909 27.1998C22.368 27.0588 21.9061 27.074 21.4995 27.2567C21.3216 27.3365 21.1411 27.4113 20.9581 27.481C20.5424 27.6393 20.206 27.9554 20.0071 28.3533C19.6521 29.0631 19.0358 29.5885 18.3086 29.8367C18.3193 29.8409 18.3299 29.8457 18.3402 29.8509C18.816 30.0941 19.3133 30.3011 19.8286 30.4681C19.9171 30.4968 19.9908 30.5587 20.0323 30.6418L20.7005 31.9781C20.9562 32.4894 21.4788 32.8125 22.0504 32.8125H23.8867C24.4585 32.8125 24.981 32.4894 25.2367 31.9781L25.9048 30.6418C25.9464 30.5587 26.0201 30.4966 26.1085 30.4681C26.624 30.3011 27.1213 30.0941 27.597 29.8509C27.6798 29.8085 27.7757 29.8003 27.864 29.8297L29.2821 30.3025C29.8244 30.4832 30.4224 30.3421 30.8266 29.9379L32.125 28.6394C32.5293 28.2352 32.6704 27.6373 32.4896 27.0949L32.017 25.6769C31.9876 25.5886 31.9958 25.4927 32.038 25.4099C32.2813 24.9341 32.4882 24.4367 32.6552 23.9214C32.6839 23.833 32.7458 23.7593 32.8289 23.7177L34.1652 23.0496C34.6766 22.7939 34.9996 22.2712 34.9996 21.6996V19.8633C34.9998 19.2914 34.6767 18.7688 34.1654 18.5131Z" fill="#68CA44"/>
<path d="M67.9492 61.25H52.3633C51.2307 61.25 50.3125 60.3318 50.3125 59.1992V39.313C50.3125 38.1805 51.2307 37.2623 52.3633 37.2623H67.9492C69.0818 37.2623 70 38.1805 70 39.313V59.1992C70 60.3318 69.0818 61.25 67.9492 61.25Z" fill="#0055A3"/>
<path d="M67.8873 37.2623H64.3661V53.3274C64.3661 56.1472 62.0802 58.4332 59.2603 58.4332H50.3125V59.1374C50.3125 60.3042 51.2583 61.2501 52.4252 61.2501H67.8874C69.0542 61.2501 70.0001 60.3042 70.0001 59.1374V39.375C70 38.2082 69.0542 37.2623 67.8873 37.2623Z" fill="#004281"/>
<path d="M65.625 39.375L61.25 41.5625L54.6875 39.375V24.7737C54.6875 24.4871 55.019 24.3277 55.2429 24.5068L57.2085 26.0792C57.3333 26.179 57.5106 26.179 57.6354 26.0792L59.9428 24.2334C60.0677 24.1336 60.245 24.1336 60.3698 24.2334L62.6772 26.0792C62.802 26.179 62.9794 26.179 63.1042 26.0792L65.0698 24.5068C65.2936 24.3277 65.6251 24.4871 65.6251 24.7737V39.375H65.625Z" fill="#F2FBFF"/>
<path d="M62.6771 26.0792L61.3996 25.0573V33.0045C61.3996 34.9671 59.8086 36.5582 57.8458 36.5582H54.6875V39.375L61.25 41.5625L65.625 39.375V24.7737C65.625 24.4872 65.2935 24.3277 65.0696 24.5068L63.104 26.0792C62.9794 26.179 62.8019 26.179 62.6771 26.0792Z" fill="#DFF6FD"/>
<path d="M40.5371 52.434H5.40039C4.8341 52.434 4.375 52.8931 4.375 53.4594V60.2246C4.375 60.7909 4.8341 61.25 5.40039 61.25H40.5371C41.1034 61.25 41.5625 60.7909 41.5625 60.2246V53.4594C41.5625 52.8931 41.1034 52.434 40.5371 52.434Z" fill="#0055A3"/>
<path d="M40.5062 52.434H35.9287V54.8868C35.9287 56.8453 34.341 58.433 32.3825 58.433H4.375V60.1936C4.375 60.7769 4.84791 61.2499 5.43129 61.2499H40.5061C41.0895 61.2499 41.5624 60.7769 41.5624 60.1936V53.4903C41.5625 52.9069 41.0896 52.434 40.5062 52.434Z" fill="#004281"/>
<path d="M63.4375 48.125H56.875C55.6668 48.125 54.6875 47.1457 54.6875 45.9375V39.375H65.625V45.9375C65.625 47.1457 64.6457 48.125 63.4375 48.125Z" fill="#62DBFB"/>
<path d="M61.3997 39.375V43.0545C61.3997 44.2991 60.3907 45.308 59.1462 45.308H54.6875V45.8715C54.6875 47.116 55.6965 48.125 56.941 48.125H63.3715C64.616 48.125 65.625 47.116 65.625 45.8715V39.375H61.3997Z" fill="#01D0FB"/>
<path d="M61.25 31.6504H59.0625C58.4962 31.6504 58.0371 31.1914 58.0371 30.625C58.0371 30.0586 58.4962 29.5996 59.0625 29.5996H61.25C61.8163 29.5996 62.2754 30.0586 62.2754 30.625C62.2754 31.1914 61.8163 31.6504 61.25 31.6504ZM62.2754 35C62.2754 34.4336 61.8163 33.9746 61.25 33.9746H59.0625C58.4962 33.9746 58.0371 34.4336 58.0371 35C58.0371 35.5664 58.4962 36.0254 59.0625 36.0254H61.25C61.8163 36.0254 62.2754 35.5664 62.2754 35Z" fill="#0055A3"/>
<path d="M61.3984 31.6394C61.8938 31.567 62.2741 31.1406 62.2741 30.625C62.2741 30.1094 61.8938 29.683 61.3984 29.6105V31.6394Z" fill="#004281"/>
<path d="M62.2759 35C62.2759 34.4388 61.8252 33.9831 61.266 33.9748C61.0221 34.8358 60.4618 35.5639 59.7188 36.0254H61.2505C61.8168 36.0254 62.2759 35.5665 62.2759 35Z" fill="#004281"/>
<path d="M65.625 57.9004H54.6875C54.1212 57.9004 53.6621 57.4414 53.6621 56.875C53.6621 56.3086 54.1212 55.8496 54.6875 55.8496H65.625C66.1913 55.8496 66.6504 56.3086 66.6504 56.875C66.6504 57.4414 66.1913 57.9004 65.625 57.9004Z" fill="#004281"/>
<path d="M65.6245 55.8496H63.7002C63.1988 56.7302 62.4433 57.4472 61.5332 57.9004H65.6245C66.1908 57.9004 66.6499 57.4414 66.6499 56.875C66.6499 56.3086 66.1908 55.8496 65.6245 55.8496Z" fill="#00366D"/>
<path d="M24.9223 20.3514L23.9943 20.0421V16.0498C24.7934 16.1688 25.4085 16.8595 25.4085 17.6911C25.4085 18.2576 25.8676 18.7165 26.4339 18.7165C27.0002 18.7165 27.4593 18.2576 27.4593 17.6911C27.4593 15.7277 25.9263 14.1157 23.9943 13.9889V13.5625C23.9943 12.9961 23.5352 12.5371 22.9689 12.5371C22.4026 12.5371 21.9435 12.9961 21.9435 13.5625V13.9889C20.0115 14.1157 18.4785 15.7277 18.4785 17.6911C18.4785 19.2905 19.498 20.7051 21.0156 21.2111L21.9437 21.5204V25.5127C21.1445 25.3937 20.5294 24.703 20.5294 23.8714C20.5294 23.3049 20.0703 22.846 19.504 22.846C18.9378 22.846 18.4787 23.3049 18.4787 23.8714C18.4787 25.8348 20.0117 27.4468 21.9437 27.5736V28C21.9437 28.5664 22.4028 29.0254 22.969 29.0254C23.5353 29.0254 23.9944 28.5664 23.9944 28V27.5736C25.9264 27.4468 27.4594 25.8348 27.4594 23.8714C27.4593 22.272 26.4398 20.8575 24.9223 20.3514ZM21.6642 19.2654C20.9854 19.0392 20.5293 18.4064 20.5293 17.691C20.5293 16.8593 21.1444 16.1686 21.9435 16.0497V19.3586L21.6642 19.2654ZM23.9943 25.5127V22.2038L24.2736 22.2969C24.9524 22.5232 25.4085 23.1559 25.4085 23.8714C25.4085 24.7032 24.7934 25.3939 23.9943 25.5127Z" fill="#0055A3"/>
<path d="M26.6265 22.1289C26.444 22.5355 26.4288 22.9976 26.5698 23.4203L26.5699 23.4207C26.9258 24.4883 26.648 25.6654 25.8521 26.4611L25.8312 26.4818C25.0355 27.2775 23.8584 27.5555 22.7909 27.1996L22.7905 27.1995C22.3676 27.0585 21.9056 27.0737 21.499 27.2564C21.3705 27.314 21.2406 27.3691 21.1094 27.4215C21.3758 27.5026 21.6549 27.5545 21.9428 27.5734V27.9998C21.9428 28.5663 22.4019 29.0252 22.9682 29.0252C23.5345 29.0252 23.9936 28.5663 23.9936 27.9998V27.5734C25.9256 27.4467 27.4586 25.8346 27.4586 23.8712C27.4586 23.09 27.2154 22.3529 26.7896 21.7443C26.7377 21.8739 26.6834 22.0021 26.6265 22.1289Z" fill="#004281"/>
<path d="M26.25 57.9004H17.5C16.9337 57.9004 16.4746 57.4414 16.4746 56.875C16.4746 56.3086 16.9337 55.8496 17.5 55.8496H26.25C26.8163 55.8496 27.2754 56.3086 27.2754 56.875C27.2754 57.4414 26.8163 57.9004 26.25 57.9004Z" fill="#004281"/>
<path d="M30.625 57.9004C31.1913 57.9004 31.6504 57.4413 31.6504 56.875C31.6504 56.3087 31.1913 55.8496 30.625 55.8496C30.0587 55.8496 29.5996 56.3087 29.5996 56.875C29.5996 57.4413 30.0587 57.9004 30.625 57.9004Z" fill="#E53950"/>
</g>
<defs>
<clipPath id="clip0_33_1066">
<rect width="70" height="70" fill="white"/>
</clipPath>
</defs>
</svg>
