<svg width="70" height="70" viewBox="0 0 70 70" fill="none" xmlns="http://www.w3.org/2000/svg">
<path d="M29.5312 12.0312H31.7188V14.2188H29.5312V12.0312ZM57.9688 38.2812H60.1562V40.4688H57.9688V38.2812ZM38.2812 55.7812H40.4688V57.9688H38.2812V55.7812ZM29.5312 59.0625H31.7188V61.25H29.5312V59.0625ZM12.0312 33.9062H14.2188V36.0938H12.0312V33.9062ZM38.2812 12.0312H40.4688V14.2188H38.2812V12.0312ZM55.7812 29.5312H57.9688V31.7188H55.7812V29.5312ZM50.3125 18.5938H52.5V20.7812H50.3125V18.5938ZM17.5 18.5938H19.6875V20.7812H17.5V18.5938ZM50.3125 49.2188H52.5V51.4062H50.3125V49.2188ZM17.5 49.2188H19.6875V51.4062H17.5V49.2188ZM34.8709 33.9062C34.106 33.9309 33.3739 34.2228 32.8017 34.7311C32.2295 35.2394 31.8535 35.932 31.7388 36.6887C31.6242 37.4454 31.7782 38.2184 32.1742 38.8734C32.5701 39.5283 33.1829 40.0239 33.9062 40.2741V42.6562H36.0938V40.2664C36.8348 40.0069 37.4579 39.4897 37.8493 38.809C38.2408 38.1284 38.3747 37.3298 38.2264 36.5588C38.0782 35.7877 37.6577 35.0956 37.0418 34.6087C36.4258 34.1218 35.6554 33.8725 34.8709 33.9062ZM36.0938 37.1448C36.0995 37.2884 36.0768 37.4317 36.0272 37.5665C35.9775 37.7013 35.9017 37.8251 35.8042 37.9306C35.7067 38.0361 35.5893 38.1214 35.4589 38.1816C35.3284 38.2417 35.1873 38.2756 35.0438 38.2812C34.9 38.2869 34.7565 38.2641 34.6216 38.2141C34.4866 38.1642 34.3628 38.0882 34.2573 37.9903C34.0984 37.8435 33.9865 37.6529 33.9359 37.4425C33.8852 37.2322 33.8981 37.0115 33.973 36.8085C34.0478 36.6054 34.1811 36.4291 34.3562 36.3019C34.5312 36.1747 34.74 36.1023 34.9562 36.0938H35C35.2827 36.0935 35.5544 36.2027 35.7583 36.3985C35.9622 36.5942 36.0824 36.8624 36.0938 37.1448Z" fill="#F68920"/>
<path d="M40.4688 30.8263V29.5312C40.4688 28.0808 39.8926 26.6898 38.867 25.6643C37.8414 24.6387 36.4504 24.0625 35 24.0625C33.5496 24.0625 32.1586 24.6387 31.133 25.6643C30.1074 26.6898 29.5312 28.0808 29.5312 29.5312V30.8263C28.8937 31.0517 28.3414 31.4685 27.9498 32.0199C27.5582 32.5712 27.3466 33.23 27.3438 33.9062V42.6562C27.3438 43.5265 27.6895 44.3611 28.3048 44.9764C28.9202 45.5918 29.7548 45.9375 30.625 45.9375H39.375C40.2452 45.9375 41.0798 45.5918 41.6952 44.9764C42.3105 44.3611 42.6562 43.5265 42.6562 42.6562V33.9062C42.6534 33.23 42.4418 32.5712 42.0502 32.0199C41.6586 31.4685 41.1063 31.0517 40.4688 30.8263ZM31.7188 29.5312C31.7188 28.661 32.0645 27.8264 32.6798 27.2111C33.2952 26.5957 34.1298 26.25 35 26.25C35.8702 26.25 36.7048 26.5957 37.3202 27.2111C37.9355 27.8264 38.2812 28.661 38.2812 29.5312V30.625H31.7188V29.5312ZM40.4688 42.6562C40.4688 42.9463 40.3535 43.2245 40.1484 43.4296C39.9433 43.6348 39.6651 43.75 39.375 43.75H30.625C30.3349 43.75 30.0567 43.6348 29.8516 43.4296C29.6465 43.2245 29.5312 42.9463 29.5312 42.6562V33.9062C29.5312 33.6162 29.6465 33.338 29.8516 33.1329C30.0567 32.9277 30.3349 32.8125 30.625 32.8125H39.375C39.6651 32.8125 39.9433 32.9277 40.1484 33.1329C40.3535 33.338 40.4688 33.6162 40.4688 33.9062V42.6562Z" fill="#F68920"/>
<path d="M64.5312 44.8438C64.044 44.8456 63.5635 44.9578 63.1258 45.1719L60.6102 42.6562H50.3125V40.4688H55.7812V38.2812H50.3125V36.0938H56.0394L62.2595 32.9831C62.8047 33.5053 63.5135 33.8231 64.266 33.8827C65.0185 33.9423 65.7686 33.7401 66.3891 33.3103C67.0097 32.8805 67.4628 32.2496 67.6716 31.5241C67.8804 30.7987 67.8322 30.0234 67.5351 29.3295C67.238 28.6355 66.7103 28.0655 66.0412 27.7159C65.3722 27.3663 64.6029 27.2586 63.8636 27.411C63.1242 27.5634 62.4603 27.9665 61.984 28.5522C61.5077 29.1379 61.2484 29.8701 61.25 30.625C61.2551 30.7581 61.2687 30.8907 61.2905 31.022L55.5231 33.9063H50.3125V31.7188H53.5938V29.5313H50.3125V27.3438H55.1403L58.7497 23.7344C59.1877 23.9486 59.6686 24.0608 60.1562 24.0625C60.8052 24.0625 61.4396 23.8701 61.9792 23.5095C62.5188 23.149 62.9394 22.6365 63.1877 22.0369C63.4361 21.4374 63.5011 20.7776 63.3745 20.1411C63.2478 19.5046 62.9353 18.9199 62.4764 18.4611C62.0176 18.0022 61.4329 17.6897 60.7964 17.563C60.1599 17.4364 59.5001 17.5014 58.9006 17.7498C58.301 17.9981 57.7885 18.4187 57.428 18.9583C57.0674 19.4979 56.875 20.1323 56.875 20.7813C56.8769 21.2685 56.9891 21.749 57.2031 22.1867L54.2347 25.1563H50.3125C50.3108 23.7064 49.734 22.3164 48.7088 21.2912C47.6836 20.266 46.2936 19.6892 44.8438 19.6875V16.8591L51.0945 10.6094C51.5322 10.8234 52.0127 10.9356 52.5 10.9375C53.149 10.9375 53.7834 10.7451 54.323 10.3845C54.8626 10.024 55.2831 9.5115 55.5315 8.91193C55.7798 8.31236 55.8448 7.65261 55.7182 7.01611C55.5916 6.37961 55.2791 5.79495 54.8202 5.33606C54.3613 4.87717 53.7766 4.56466 53.1401 4.43805C52.5036 4.31144 51.8439 4.37642 51.2443 4.62477C50.6448 4.87312 50.1323 5.29369 49.7717 5.83329C49.4112 6.37289 49.2188 7.00728 49.2188 7.65625C49.2206 8.1435 49.3328 8.624 49.5469 9.06172L42.6562 15.9523V19.6875H40.4688V16.4063H38.2812V19.6875H36.0938V11.83C36.8235 11.572 37.4386 11.0643 37.8302 10.3967C38.2219 9.72903 38.3649 8.94443 38.234 8.18154C38.1031 7.41866 37.7067 6.7266 37.1149 6.2277C36.5231 5.72879 35.774 5.45516 35 5.45516C34.226 5.45516 33.4769 5.72879 32.8851 6.2277C32.2933 6.7266 31.8969 7.41866 31.766 8.18154C31.6351 8.94443 31.7781 9.72903 32.1698 10.3967C32.5614 11.0643 33.1765 11.572 33.9063 11.83V19.6875H31.7188V16.4063H29.5313V19.6875H27.3438V11.5784L22.6406 6.87531C22.8548 6.43727 22.967 5.95637 22.9688 5.46875C22.9688 4.81978 22.7763 4.18539 22.4158 3.64579C22.0552 3.10619 21.5428 2.68562 20.9432 2.43727C20.3436 2.18892 19.6839 2.12394 19.0474 2.25055C18.4109 2.37716 17.8262 2.68967 17.3673 3.14856C16.9084 3.60745 16.5959 4.19211 16.4693 4.82861C16.3427 5.46511 16.4077 6.12486 16.656 6.72443C16.9044 7.324 17.3249 7.83646 17.8645 8.19701C18.4041 8.55756 19.0385 8.75 19.6875 8.75C20.1748 8.74812 20.6553 8.63594 21.093 8.42188L25.1563 12.4841V19.6875C23.7064 19.6892 22.3164 20.266 21.2912 21.2912C20.266 22.3164 19.6892 23.7064 19.6875 25.1563H15.7653L12.7969 22.1867C13.0109 21.749 13.1231 21.2685 13.125 20.7813C13.125 20.1323 12.9326 19.4979 12.572 18.9583C12.2115 18.4187 11.699 17.9981 11.0994 17.7498C10.4999 17.5014 9.84011 17.4364 9.20361 17.563C8.56711 17.6897 7.98245 18.0022 7.52356 18.4611C7.06467 18.9199 6.75216 19.5046 6.62555 20.1411C6.49894 20.7776 6.56392 21.4374 6.81227 22.0369C7.06062 22.6365 7.48119 23.149 8.02079 23.5095C8.56039 23.8701 9.19478 24.0625 9.84375 24.0625C10.331 24.0606 10.8115 23.9484 11.2492 23.7344L14.8586 27.3438H19.6875V29.5313H12.7291L7 34.3044C6.53049 34.0468 6.00428 33.91 5.46875 33.9063C4.81978 33.9063 4.18539 34.0987 3.64579 34.4592C3.10619 34.8198 2.68562 35.3323 2.43727 35.9318C2.18892 36.5314 2.12394 37.1911 2.25055 37.8276C2.37716 38.4641 2.68967 39.0488 3.14856 39.5077C3.60745 39.9666 4.19211 40.2791 4.82861 40.4057C5.46511 40.5323 6.12486 40.4673 6.72443 40.219C7.324 39.9706 7.83646 39.5501 8.19701 39.0105C8.55756 38.4709 8.75 37.8365 8.75 37.1875C8.75074 36.7485 8.66256 36.314 8.49078 35.91L13.5209 31.7188H19.6875V33.9063H16.4063V36.0938H19.6875V38.2812H9.84375V40.4688H19.6875V42.6562H13.6336L9.22578 49.2669C9.06859 49.2392 8.90956 49.2231 8.75 49.2188C7.98908 49.2118 7.24896 49.467 6.65413 49.9416C6.05929 50.4162 5.64603 51.0811 5.48384 51.8246C5.32164 52.568 5.42042 53.3447 5.76355 54.0239C6.10668 54.7031 6.67324 55.2434 7.36793 55.554C8.06262 55.8645 8.84307 55.9264 9.57802 55.7292C10.313 55.5319 10.9576 55.0876 11.4034 54.471C11.8493 53.8543 12.0692 53.103 12.0262 52.3432C11.9832 51.5835 11.6798 50.8617 11.1672 50.2994L14.8039 44.8438H19.6875C19.6892 46.2936 20.266 47.6836 21.2912 48.7088C22.3164 49.734 23.7064 50.3108 25.1563 50.3125V57.5159L21.093 61.5781C20.6553 61.3641 20.1748 61.2519 19.6875 61.25C19.0385 61.25 18.4041 61.4424 17.8645 61.803C17.3249 62.1635 16.9044 62.676 16.656 63.2756C16.4077 63.8751 16.3427 64.5349 16.4693 65.1714C16.5959 65.8079 16.9084 66.3926 17.3673 66.8514C17.8262 67.3103 18.4109 67.6228 19.0474 67.7495C19.6839 67.8761 20.3436 67.8111 20.9432 67.5627C21.5428 67.3144 22.0552 66.8938 22.4158 66.3542C22.7763 65.8146 22.9688 65.1802 22.9688 64.5312C22.9669 64.044 22.8547 63.5635 22.6406 63.1258L27.3438 58.4227V50.3125H29.5313V56.875H31.7188V50.3125H33.9063V59.6684L40.5497 63.8247C40.3711 64.591 40.4698 65.3957 40.8281 66.0963C41.1863 66.7968 41.7811 67.3477 42.507 67.6515C43.2328 67.9552 44.0427 67.9921 44.7932 67.7555C45.5436 67.519 46.186 67.0243 46.6064 66.3592C47.0268 65.6942 47.1982 64.9017 47.09 64.1223C46.9818 63.343 46.601 62.6272 46.0153 62.1018C45.4296 61.5764 44.6768 61.2754 43.8903 61.2522C43.1038 61.2291 42.3345 61.4852 41.7189 61.9752L36.0938 58.4566V50.3125H38.2812V53.5938H40.4688V50.3125H42.6562V59.0625H50.5137C50.7718 59.7923 51.2795 60.4073 51.9471 60.799C52.6147 61.1906 53.3993 61.3336 54.1622 61.2027C54.9251 61.0719 55.6171 60.6755 56.1161 60.0837C56.615 59.4919 56.8886 58.7428 56.8886 57.9688C56.8886 57.1947 56.615 56.4456 56.1161 55.8538C55.6171 55.262 54.9251 54.8656 54.1622 54.7348C53.3993 54.6039 52.6147 54.7469 51.9471 55.1385C51.2795 55.5302 50.7718 56.1452 50.5137 56.875H44.8438V50.3125C46.2936 50.3108 47.6836 49.734 48.7088 48.7088C49.734 47.6836 50.3108 46.2936 50.3125 44.8438H59.7034L61.5781 46.7195C61.3641 47.1572 61.2519 47.6377 61.25 48.125C61.25 48.774 61.4424 49.4084 61.803 49.948C62.1635 50.4876 62.676 50.9081 63.2756 51.1565C63.8751 51.4048 64.5349 51.4698 65.1714 51.3432C65.8079 51.2166 66.3926 50.9041 66.8514 50.4452C67.3103 49.9863 67.6228 49.4016 67.7495 48.7651C67.8761 48.1286 67.8111 47.4689 67.5627 46.8693C67.3144 46.2698 66.8938 45.7573 66.3542 45.3967C65.8146 45.0362 65.1802 44.8438 64.5312 44.8438ZM64.5312 29.5313C64.7476 29.5313 64.959 29.5954 65.1389 29.7156C65.3188 29.8358 65.459 30.0066 65.5417 30.2064C65.6245 30.4063 65.6462 30.6262 65.604 30.8384C65.5618 31.0505 65.4576 31.2454 65.3046 31.3984C65.1517 31.5514 64.9568 31.6555 64.7446 31.6977C64.5325 31.7399 64.3125 31.7183 64.1127 31.6355C63.9128 31.5527 63.742 31.4125 63.6218 31.2327C63.5016 31.0528 63.4375 30.8413 63.4375 30.625C63.4375 30.3349 63.5527 30.0567 63.7579 29.8516C63.963 29.6465 64.2412 29.5313 64.5312 29.5313ZM60.1562 19.6875C60.3726 19.6875 60.584 19.7516 60.7639 19.8718C60.9438 19.992 61.084 20.1628 61.1667 20.3627C61.2495 20.5625 61.2712 20.7825 61.229 20.9946C61.1868 21.2068 61.0826 21.4017 60.9296 21.5547C60.7767 21.7076 60.5818 21.8118 60.3696 21.854C60.1575 21.8962 59.9375 21.8745 59.7377 21.7917C59.5378 21.709 59.367 21.5688 59.2468 21.3889C59.1266 21.209 59.0625 20.9976 59.0625 20.7813C59.0625 20.4912 59.1777 20.213 59.3829 20.0079C59.588 19.8027 59.8662 19.6875 60.1562 19.6875ZM52.5 6.5625C52.7163 6.5625 52.9278 6.62665 53.1077 6.74683C53.2875 6.86701 53.4277 7.03784 53.5105 7.23769C53.5933 7.43755 53.6149 7.65746 53.5727 7.86963C53.5305 8.0818 53.4264 8.27669 53.2734 8.42965C53.1204 8.58261 52.9255 8.68678 52.7134 8.72899C52.5012 8.77119 52.2813 8.74953 52.0814 8.66674C51.8816 8.58396 51.7108 8.44377 51.5906 8.26391C51.4704 8.08404 51.4062 7.87257 51.4062 7.65625C51.4062 7.36617 51.5215 7.08797 51.7266 6.88285C51.9317 6.67774 52.2099 6.5625 52.5 6.5625ZM35 7.65625C35.2163 7.65625 35.4278 7.7204 35.6077 7.84058C35.7875 7.96076 35.9277 8.13159 36.0105 8.33144C36.0933 8.5313 36.1149 8.75121 36.0727 8.96338C36.0305 9.17555 35.9264 9.37044 35.7734 9.5234C35.6204 9.67636 35.4255 9.78053 35.2134 9.82274C35.0012 9.86494 34.7813 9.84328 34.5814 9.76049C34.3816 9.67771 34.2108 9.53752 34.0906 9.35766C33.9704 9.17779 33.9063 8.96632 33.9063 8.75C33.9063 8.45992 34.0215 8.18172 34.2266 7.9766C34.4317 7.77149 34.7099 7.65625 35 7.65625ZM18.5938 5.46875C18.5938 5.25243 18.6579 5.04096 18.7781 4.8611C18.8983 4.68123 19.0691 4.54104 19.2689 4.45826C19.4688 4.37547 19.6887 4.35381 19.9009 4.39602C20.113 4.43822 20.3079 4.54239 20.4609 4.69535C20.6139 4.84832 20.718 5.0432 20.7602 5.25537C20.8024 5.46754 20.7808 5.68745 20.698 5.88731C20.6152 6.08717 20.475 6.25799 20.2952 6.37817C20.1153 6.49835 19.9038 6.5625 19.6875 6.5625C19.3974 6.5625 19.1192 6.44727 18.9141 6.24215C18.709 6.03703 18.5938 5.75883 18.5938 5.46875ZM8.75 20.7813C8.75 20.5649 8.81415 20.3535 8.93433 20.1736C9.05451 19.9937 9.22533 19.8535 9.42519 19.7708C9.62505 19.688 9.84496 19.6663 10.0571 19.7085C10.2693 19.7507 10.4642 19.8549 10.6171 20.0079C10.7701 20.1608 10.8743 20.3557 10.9165 20.5679C10.9587 20.78 10.937 21 10.8542 21.1998C10.7715 21.3997 10.6313 21.5705 10.4514 21.6907C10.2715 21.8109 10.0601 21.875 9.84375 21.875C9.55367 21.875 9.27547 21.7598 9.07035 21.5547C8.86524 21.3495 8.75 21.0713 8.75 20.7813ZM5.46875 38.2812C5.25243 38.2812 5.04096 38.2171 4.8611 38.0969C4.68123 37.9767 4.54104 37.8059 4.45826 37.6061C4.37547 37.4062 4.35381 37.1863 4.39602 36.9741C4.43822 36.762 4.54239 36.5671 4.69535 36.4141C4.84832 36.2611 5.0432 36.157 5.25537 36.1148C5.46754 36.0726 5.68745 36.0942 5.88731 36.177C6.08717 36.2598 6.25799 36.4 6.37817 36.5798C6.49835 36.7597 6.5625 36.9712 6.5625 37.1875C6.5625 37.4776 6.44727 37.7558 6.24215 37.9609C6.03703 38.166 5.75883 38.2812 5.46875 38.2812ZM8.75 53.5938C8.53368 53.5938 8.32221 53.5296 8.14235 53.4094C7.96248 53.2892 7.82229 53.1184 7.73951 52.9186C7.65672 52.7187 7.63506 52.4988 7.67727 52.2866C7.71947 52.0745 7.82364 51.8796 7.9766 51.7266C8.12957 51.5736 8.32445 51.4695 8.53662 51.4273C8.74879 51.3851 8.96871 51.4067 9.16856 51.4895C9.36842 51.5723 9.53924 51.7125 9.65942 51.8923C9.7796 52.0722 9.84375 52.2837 9.84375 52.5C9.84375 52.7901 9.72852 53.0683 9.5234 53.2734C9.31828 53.4785 9.04008 53.5938 8.75 53.5938ZM19.6875 65.625C19.4712 65.625 19.2597 65.5609 19.0798 65.4407C18.9 65.3205 18.7598 65.1497 18.677 64.9498C18.5942 64.75 18.5726 64.53 18.6148 64.3179C18.657 64.1057 18.7611 63.9108 18.9141 63.7579C19.0671 63.6049 19.262 63.5007 19.4741 63.4585C19.6863 63.4163 19.9062 63.438 20.1061 63.5208C20.3059 63.6035 20.4767 63.7437 20.5969 63.9236C20.7171 64.1035 20.7813 64.3149 20.7813 64.5312C20.7813 64.8213 20.666 65.0995 20.4609 65.3046C20.2558 65.5098 19.9776 65.625 19.6875 65.625ZM43.75 63.4375C43.9663 63.4375 44.1778 63.5016 44.3577 63.6218C44.5375 63.742 44.6777 63.9128 44.7605 64.1127C44.8433 64.3125 44.8649 64.5325 44.8227 64.7446C44.7805 64.9568 44.6764 65.1517 44.5234 65.3046C44.3704 65.4576 44.1755 65.5618 43.9634 65.604C43.7512 65.6462 43.5313 65.6245 43.3314 65.5417C43.1316 65.459 42.9608 65.3188 42.8406 65.1389C42.7204 64.959 42.6562 64.7476 42.6562 64.5312C42.6562 64.2412 42.7715 63.963 42.9766 63.7579C43.1817 63.5527 43.4599 63.4375 43.75 63.4375ZM53.5938 56.875C53.8101 56.875 54.0215 56.9391 54.2014 57.0593C54.3813 57.1795 54.5215 57.3503 54.6042 57.5502C54.687 57.75 54.7087 57.97 54.6665 58.1821C54.6243 58.3943 54.5201 58.5892 54.3671 58.7421C54.2142 58.8951 54.0193 58.9993 53.8071 59.0415C53.595 59.0837 53.375 59.062 53.1752 58.9792C52.9753 58.8965 52.8045 58.7563 52.6843 58.5764C52.5641 58.3965 52.5 58.1851 52.5 57.9688C52.5 57.6787 52.6152 57.4005 52.8204 57.1954C53.0255 56.9902 53.3037 56.875 53.5938 56.875ZM48.125 44.8438C48.125 45.714 47.7793 46.5486 47.1639 47.1639C46.5486 47.7793 45.714 48.125 44.8438 48.125H25.1563C24.286 48.125 23.4514 47.7793 22.8361 47.1639C22.2207 46.5486 21.875 45.714 21.875 44.8438V25.1563C21.875 24.286 22.2207 23.4514 22.8361 22.8361C23.4514 22.2207 24.286 21.875 25.1563 21.875H44.8438C45.714 21.875 46.5486 22.2207 47.1639 22.8361C47.7793 23.4514 48.125 24.286 48.125 25.1563V44.8438ZM64.5312 49.2188C64.3149 49.2188 64.1035 49.1546 63.9236 49.0344C63.7437 48.9142 63.6035 48.7434 63.5208 48.5436C63.438 48.3437 63.4163 48.1238 63.4585 47.9116C63.5007 47.6995 63.6049 47.5046 63.7579 47.3516C63.9108 47.1986 64.1057 47.0945 64.3179 47.0523C64.53 47.0101 64.75 47.0317 64.9498 47.1145C65.1497 47.1973 65.3205 47.3375 65.4407 47.5173C65.5609 47.6972 65.625 47.9087 65.625 48.125C65.625 48.4151 65.5098 48.6933 65.3046 48.8984C65.0995 49.1035 64.8213 49.2188 64.5312 49.2188Z" fill="#F68920"/>
</svg>
