<svg width="139" height="24" viewBox="0 0 139 24" fill="none" xmlns="http://www.w3.org/2000/svg">
<path d="M10.9272 1.16453C11.4317 -0.388176 13.6284 -0.388176 14.1328 1.16453L15.9354 6.71225C16.1611 7.40665 16.8081 7.87679 17.5383 7.87679H23.3715C25.0041 7.87679 25.683 9.96592 24.3622 10.9255L19.6429 14.3542C19.0522 14.7833 18.805 15.5441 19.0307 16.2384L20.8333 21.7862C21.3377 23.3388 19.5607 24.6301 18.2397 23.6705L13.5207 20.2417C12.93 19.8126 12.1301 19.8126 11.5394 20.2417L6.82023 23.6705C5.49943 24.6301 3.72229 23.3388 4.22679 21.7862L6.02936 16.2384C6.25497 15.5441 6.0078 14.7833 5.41713 14.3542L0.69795 10.9255C-0.622869 9.96592 0.0559443 7.87679 1.68855 7.87679H7.52178C8.25191 7.87679 8.89899 7.40665 9.12462 6.71225L10.9272 1.16453Z" fill="#EF5512"/>
<path d="M39.3295 1.16453C39.834 -0.388176 42.0307 -0.388176 42.5351 1.16453L44.3377 6.71225C44.5634 7.40665 45.2104 7.87679 45.9407 7.87679H51.7739C53.4064 7.87679 54.0853 9.96592 52.7645 10.9255L48.0453 14.3542C47.4546 14.7833 47.2073 15.5441 47.433 16.2384L49.2356 21.7862C49.74 23.3388 47.963 24.6301 46.6421 23.6705L41.923 20.2417C41.3323 19.8126 40.5324 19.8126 39.9418 20.2417L35.2226 23.6705C33.9018 24.6301 32.1246 23.3388 32.6291 21.7862L34.4317 16.2384C34.6573 15.5441 34.4101 14.7833 33.8195 14.3542L29.1003 10.9255C27.7795 9.96592 28.4583 7.87679 30.0909 7.87679H35.9241C36.6543 7.87679 37.3013 7.40665 37.527 6.71225L39.3295 1.16453Z" fill="#EF5512"/>
<path d="M67.7299 1.16453C68.2344 -0.388176 70.4311 -0.388176 70.9355 1.16453L72.7381 6.71225C72.9638 7.40665 73.6108 7.87679 74.341 7.87679H80.1743C81.8068 7.87679 82.4857 9.96592 81.1649 10.9255L76.4457 14.3542C75.855 14.7833 75.6077 15.5441 75.8334 16.2384L77.636 21.7862C78.1404 23.3388 76.3634 24.6301 75.0425 23.6705L70.3234 20.2417C69.7327 19.8126 68.9328 19.8126 68.3421 20.2417L63.623 23.6705C62.3022 24.6301 60.525 23.3388 61.0295 21.7862L62.8321 16.2384C63.0577 15.5441 62.8105 14.7833 62.2199 14.3542L57.5007 10.9255C56.1799 9.96592 56.8587 7.87679 58.4913 7.87679H64.3245C65.0546 7.87679 65.7017 7.40665 65.9274 6.71225L67.7299 1.16453Z" fill="#EF5512"/>
<path d="M96.1323 1.16453C96.6368 -0.388176 98.8334 -0.388176 99.3379 1.16453L101.14 6.71225C101.366 7.40665 102.013 7.87679 102.743 7.87679H108.577C110.209 7.87679 110.888 9.96592 109.567 10.9255L104.848 14.3542C104.257 14.7833 104.01 15.5441 104.236 16.2384L106.038 21.7862C106.543 23.3388 104.766 24.6301 103.445 23.6705L98.7258 20.2417C98.135 19.8126 97.3352 19.8126 96.7445 20.2417L92.0253 23.6705C90.7045 24.6301 88.9274 23.3388 89.4319 21.7862L91.2344 16.2384C91.4601 15.5441 91.2129 14.7833 90.6222 14.3542L85.903 10.9255C84.5822 9.96592 85.261 7.87679 86.8936 7.87679H92.7269C93.457 7.87679 94.1041 7.40665 94.3297 6.71225L96.1323 1.16453Z" fill="#EF5512"/>
<path d="M124.533 1.16453C125.037 -0.388176 127.234 -0.388176 127.738 1.16453L129.541 6.71225C129.767 7.40665 130.414 7.87679 131.144 7.87679H136.977C138.61 7.87679 139.288 9.96592 137.968 10.9255L133.248 14.3542C132.658 14.7833 132.41 15.5441 132.636 16.2384L134.439 21.7862C134.943 23.3388 133.166 24.6301 131.845 23.6705L127.126 20.2417C126.535 19.8126 125.736 19.8126 125.145 20.2417L120.426 23.6705C119.105 24.6301 117.328 23.3388 117.832 21.7862L119.635 16.2384C119.86 15.5441 119.613 14.7833 119.023 14.3542L114.303 10.9255C112.983 9.96592 113.661 7.87679 115.294 7.87679H121.127C121.857 7.87679 122.504 7.40665 122.73 6.71225L124.533 1.16453Z" fill="#4B5563"/>
</svg>
