<svg width="69" height="70" viewBox="0 0 69 70" fill="none" xmlns="http://www.w3.org/2000/svg">
<path d="M67.3335 39.7532L64.6803 38.8726C64.8473 37.5885 64.9303 36.2949 64.9287 35C64.9299 33.7014 64.8469 32.404 64.6803 31.1161L67.3335 30.2468C67.9022 30.0608 68.3738 29.6567 68.6447 29.1232C68.9157 28.5897 68.9639 27.9706 68.7787 27.4016L66.6899 20.9661C66.5983 20.6823 66.4514 20.4194 66.2576 20.1927C66.0638 19.966 65.827 19.7799 65.5609 19.6452C65.2915 19.5054 64.9967 19.4213 64.6941 19.398C64.3914 19.3748 64.0872 19.4127 63.7996 19.5097L61.1803 20.3226C59.9515 18.0444 58.4336 15.9344 56.6641 14.0452L58.3012 11.7871C58.4768 11.5471 58.6032 11.2749 58.6733 10.9859C58.7434 10.6969 58.7557 10.397 58.7095 10.1033C58.6634 9.80953 58.5596 9.52781 58.4043 9.27427C58.249 9.02073 58.0452 8.80036 57.8045 8.62581L52.2722 4.69677C51.7883 4.34576 51.185 4.20094 50.5945 4.29406C50.004 4.38718 49.4746 4.71065 49.1222 5.19355L47.4738 7.45161C45.1276 6.33227 42.6453 5.52384 40.0899 5.04677V2.25806C40.0899 1.65919 39.852 1.08484 39.4286 0.661372C39.0051 0.237903 38.4308 0 37.8319 0H31.0577C30.4588 0 29.8845 0.237903 29.461 0.661372C29.0375 1.08484 28.7996 1.65919 28.7996 2.25806V5.04677C26.24 5.52138 23.7537 6.32989 21.4045 7.45161L19.7674 5.19355C19.415 4.71065 18.8855 4.38718 18.295 4.29406C17.7046 4.20094 17.1012 4.34576 16.6174 4.69677L11.1303 8.67097C10.8896 8.84552 10.6857 9.06589 10.5304 9.31943C10.3751 9.57298 10.2714 9.8547 10.2252 10.1484C10.1791 10.4421 10.1914 10.7421 10.2614 11.0311C10.3315 11.32 10.4579 11.5923 10.6335 11.8323L12.2593 14.0903C10.4902 15.984 8.9723 18.0976 7.74317 20.379L5.08994 19.5097C4.80751 19.4182 4.50981 19.3833 4.21388 19.4071C3.91795 19.4308 3.6296 19.5126 3.36534 19.6479C3.10107 19.7832 2.86608 19.9692 2.6738 20.1954C2.48152 20.4216 2.33573 20.6835 2.24478 20.9661L0.156074 27.4016C-0.0291397 27.9706 0.0190233 28.5897 0.289986 29.1232C0.560948 29.6567 1.03256 30.0608 1.60124 30.2468L4.25446 31.1274C4.07231 32.4105 3.97425 33.7041 3.96091 35C3.95965 36.2986 4.04262 37.596 4.2093 38.8839L1.55607 39.7532C0.987394 39.9392 0.515786 40.3433 0.244824 40.8768C-0.0261379 41.4103 -0.074301 42.0294 0.110913 42.5984L2.19962 49.0339C2.29125 49.3177 2.43819 49.5806 2.63198 49.8073C2.82577 50.034 3.06255 50.2201 3.32865 50.3548C3.59806 50.4946 3.89288 50.5787 4.1955 50.602C4.49812 50.6252 4.80233 50.5873 5.08994 50.4903L7.7093 49.6774C8.93807 51.9556 10.456 54.0656 12.2254 55.9548L10.5883 58.2129C10.4128 58.4529 10.2863 58.7251 10.2163 59.0141C10.1462 59.3031 10.1339 59.603 10.18 59.8967C10.2262 60.1905 10.3299 60.4722 10.4852 60.7257C10.6405 60.9793 10.8444 61.1996 11.0851 61.3742L16.5722 65.3484C16.816 65.527 17.0931 65.6549 17.3873 65.7244C17.6814 65.7939 17.9864 65.8037 18.2844 65.7532C18.5824 65.7027 18.8672 65.5928 19.1219 65.4302C19.3766 65.2676 19.5961 65.0555 19.7674 64.8065L21.4157 62.5484C23.762 63.6677 26.2442 64.4762 28.7996 64.9532V67.7419C28.7996 68.3408 29.0375 68.9152 29.461 69.3386C29.8845 69.7621 30.4588 70 31.0577 70H37.8319C38.4308 70 39.0051 69.7621 39.4286 69.3386C39.852 68.9152 40.0899 68.3408 40.0899 67.7419V64.9532C42.6457 64.4777 45.1282 63.6692 47.4738 62.5484L49.1109 64.8065C49.4633 65.2893 49.9927 65.6128 50.5832 65.7059C51.1737 65.7991 51.777 65.6542 52.2609 65.3032L57.748 61.329C57.9887 61.1545 58.1926 60.9341 58.3479 60.6806C58.5032 60.427 58.6069 60.1453 58.6531 59.8516C58.6992 59.5579 58.6869 59.2579 58.6169 58.9689C58.5468 58.68 58.4203 58.4077 58.2448 58.1677L56.619 55.9097C58.3881 54.016 59.906 51.9024 61.1351 49.621L63.7996 50.4903C64.0821 50.5818 64.3798 50.6167 64.6757 50.5929C64.9716 50.5692 65.26 50.4874 65.5242 50.3521C65.7885 50.2168 66.0235 50.0308 66.2158 49.8046C66.408 49.5784 66.5538 49.3165 66.6448 49.0339L68.7335 42.5984C68.9208 42.0353 68.8789 41.4212 68.6169 40.8887C68.3549 40.3563 67.8939 39.9484 67.3335 39.7532ZM64.5335 48.3339L61.8803 47.4758C61.3727 47.3192 60.8262 47.3466 60.3368 47.5531C59.8474 47.7596 59.4464 48.132 59.2045 48.6048C58.0474 50.7131 56.6287 52.6667 54.9819 54.4194C54.6297 54.7949 54.4164 55.2795 54.3774 55.7929C54.3384 56.3062 54.476 56.8175 54.7674 57.2419L56.4045 59.5L50.9287 63.4742L49.2916 61.2161C48.9794 60.7883 48.5269 60.4838 48.013 60.3558C47.4991 60.2279 46.9566 60.2846 46.4803 60.5161C44.329 61.5577 42.0521 62.3167 39.7061 62.7742C39.18 62.8704 38.7052 63.1501 38.3661 63.5636C38.0271 63.9771 37.8457 64.4976 37.8545 65.0323V67.7419H31.0577V64.9532C31.0664 64.4185 30.8851 63.8981 30.546 63.4846C30.2069 63.0711 29.7321 62.7913 29.2061 62.6952C26.8414 62.2398 24.5455 61.4808 22.3754 60.4371C21.9017 60.2116 21.3642 60.1581 20.8553 60.2859C20.3464 60.4136 19.8978 60.7146 19.5867 61.1371L17.9383 63.3952L12.4625 59.5L14.0996 57.2419C14.4086 56.8151 14.5585 56.2936 14.5235 55.7678C14.4884 55.242 14.2706 54.745 13.9077 54.3629C12.2609 52.6103 10.8422 50.6566 9.68511 48.5484C9.44312 48.0755 9.04219 47.7031 8.55279 47.4966C8.0634 47.2901 7.51687 47.2628 7.0093 47.4194L4.35607 48.2887L2.25607 41.8984L4.9093 41.029C5.40928 40.8651 5.83631 40.5317 6.11666 40.0865C6.39701 39.6412 6.51306 39.112 6.44478 38.5903C6.1437 36.2062 6.1437 33.7938 6.44478 31.4097C6.51306 30.888 6.39701 30.3588 6.11666 29.9135C5.83631 29.4683 5.40928 29.1349 4.9093 28.971L2.25607 28.1016L4.35607 21.6661L7.0093 22.5806C7.51687 22.7372 8.0634 22.7099 8.55279 22.5034C9.04219 22.2969 9.44312 21.9245 9.68511 21.4516C10.8422 19.3434 12.2609 17.3897 13.9077 15.6371C14.274 15.2578 14.496 14.7622 14.5352 14.2363C14.5743 13.7105 14.4282 13.1875 14.1222 12.7581L12.4851 10.5L17.9609 6.52581L19.598 8.78387C19.9101 9.21169 20.3627 9.5162 20.8766 9.64415C21.3905 9.77211 21.933 9.71538 22.4093 9.48387C24.5606 8.44225 26.8375 7.68327 29.1835 7.22581C29.7095 7.12962 30.1844 6.84987 30.5234 6.43636C30.8625 6.02285 31.0438 5.50243 31.0351 4.96774V2.25806H37.8093V5.04677C37.8006 5.58146 37.9819 6.10188 38.321 6.51539C38.66 6.9289 39.1349 7.20865 39.6609 7.30484C42.0062 7.76485 44.2828 8.52373 46.4351 9.5629C46.9089 9.78839 47.4464 9.84186 47.9553 9.71412C48.4642 9.58638 48.9127 9.28541 49.2238 8.8629L50.8722 6.60484L56.348 10.5903L54.7674 12.7581C54.4584 13.1849 54.3084 13.7064 54.3435 14.2322C54.3786 14.758 54.5964 15.255 54.9593 15.6371C56.614 17.3884 58.0404 19.3421 59.2045 21.4516C59.4464 21.9245 59.8474 22.2969 60.3368 22.5034C60.8262 22.7099 61.3727 22.7372 61.8803 22.5806L64.5335 21.7113L66.6335 28.1581L63.9803 29.0274C63.4803 29.1913 63.0533 29.5247 62.7729 29.97C62.4926 30.4152 62.3765 30.9444 62.4448 31.4661C62.7459 33.8502 62.7459 36.2627 62.4448 38.6468C62.3765 39.1685 62.4926 39.6977 62.7729 40.1429C63.0533 40.5882 63.4803 40.9216 63.9803 41.0855L66.6335 41.9548L64.5335 48.3339Z" fill="#F68920"/>
<path d="M19.2713 19.8259C22.8811 16.2499 27.6372 14.0627 32.7015 13.6497C37.7659 13.2366 42.8135 14.6241 46.9551 17.5678H43.8164V19.8259H50.7035C50.8848 19.8258 51.0634 19.7821 51.2242 19.6984C51.385 19.6148 51.5232 19.4936 51.6273 19.3452C51.7314 19.1968 51.7983 19.0256 51.8222 18.8459C51.8461 18.6662 51.8264 18.4834 51.7648 18.313L49.4164 11.8323L47.2938 12.6114L48.4229 15.8743C43.9997 12.6241 38.5858 11.0093 33.1049 11.3053C27.6239 11.6013 22.4155 13.7898 18.3681 17.4975C14.3207 21.2052 11.6851 26.2023 10.9109 31.6364C10.1367 37.0704 11.2719 42.6048 14.1229 47.2952L16.0535 46.1662C13.5572 42.0512 12.5172 37.2163 13.1009 32.4388C13.6845 27.6613 15.8578 23.2189 19.2713 19.8259ZM52.7922 23.8791C55.3133 28.0984 56.3089 33.0556 55.6126 37.9211C54.9162 42.7867 52.5701 47.2655 48.9668 50.6084C45.3635 53.9512 40.7215 55.9552 35.8174 56.2852C30.9134 56.6152 26.0448 55.251 22.0261 52.421H25.1535V50.163H18.2664C18.0838 50.1624 17.9038 50.2061 17.7417 50.2904C17.5797 50.3747 17.4406 50.497 17.3362 50.6469C17.2319 50.7967 17.1654 50.9697 17.1426 51.1509C17.1198 51.3321 17.1412 51.5161 17.2051 51.6872L19.5535 58.1565L21.6761 57.3888L20.4793 54.1033C24.9018 57.337 30.3076 58.9393 35.7779 58.638C41.2482 58.3366 46.4453 56.1501 50.4858 52.4502C54.5263 48.7503 57.1608 43.7653 57.9415 38.3427C58.7221 32.92 57.6008 27.3943 54.768 22.7049L52.7922 23.8791Z" fill="#F68920"/>
<path d="M18.6387 37.2581V42.9033C18.6387 43.2027 18.7576 43.4899 18.9694 43.7016C19.1811 43.9133 19.4683 44.0323 19.7677 44.0323H27.6709C27.6709 44.3317 27.7899 44.6189 28.0016 44.8306C28.2133 45.0424 28.5005 45.1613 28.8 45.1613H40.0903C40.3897 45.1613 40.6769 45.0424 40.8886 44.8306C41.1004 44.6189 41.2193 44.3317 41.2193 44.0323H49.1225C49.422 44.0323 49.7092 43.9133 49.9209 43.7016C50.1326 43.4899 50.2516 43.2027 50.2516 42.9033V37.2581C50.2478 36.3001 49.9395 35.3682 49.3712 34.5969C48.8029 33.8257 48.0041 33.2552 47.0903 32.9678C47.7258 32.4541 48.1865 31.7561 48.4089 30.9698C48.6313 30.1835 48.6044 29.3475 48.332 28.5771C48.0596 27.8067 47.5551 27.1397 46.8878 26.6679C46.2206 26.1961 45.4236 25.9428 44.6064 25.9428C43.7893 25.9428 42.9922 26.1961 42.325 26.6679C41.6578 27.1397 41.1532 27.8067 40.8808 28.5771C40.6084 29.3475 40.5816 30.1835 40.8039 30.9698C41.0263 31.7561 41.487 32.4541 42.1225 32.9678C41.4147 33.1848 40.7711 33.5725 40.2483 34.0968C39.5005 32.9981 38.3891 32.1985 37.1096 31.8387C37.8788 31.2767 38.4506 30.4858 38.7431 29.5791C39.0356 28.6725 39.0339 27.6966 38.7383 26.791C38.4427 25.8853 37.8682 25.0964 37.0971 24.537C36.326 23.9775 35.3978 23.6763 34.4451 23.6763C33.4925 23.6763 32.5642 23.9775 31.7931 24.537C31.022 25.0964 30.4476 25.8853 30.1519 26.791C29.8563 27.6966 29.8546 28.6725 30.1472 29.5791C30.4397 30.4858 31.0114 31.2767 31.7806 31.8387C30.5012 32.1985 29.3897 32.9981 28.6419 34.0968C28.1192 33.5725 27.4755 33.1848 26.7677 32.9678C27.4033 32.4541 27.8639 31.7561 28.0863 30.9698C28.3087 30.1835 28.2818 29.3475 28.0094 28.5771C27.737 27.8067 27.2325 27.1397 26.5653 26.6679C25.8981 26.1961 25.101 25.9428 24.2838 25.9428C23.4667 25.9428 22.6696 26.1961 22.0024 26.6679C21.3352 27.1397 20.8306 27.8067 20.5582 28.5771C20.2858 29.3475 20.259 30.1835 20.4814 30.9698C20.7037 31.7561 21.1644 32.4541 21.8 32.9678C20.8861 33.2552 20.0873 33.8257 19.519 34.5969C18.9508 35.3682 18.6424 36.3001 18.6387 37.2581ZM44.6064 28.2258C44.9414 28.2258 45.2688 28.3252 45.5473 28.5112C45.8258 28.6973 46.0429 28.9618 46.171 29.2713C46.2992 29.5807 46.3328 29.9213 46.2674 30.2498C46.2021 30.5783 46.0408 30.8801 45.8039 31.1169C45.5671 31.3537 45.2653 31.515 44.9368 31.5804C44.6083 31.6457 44.2678 31.6122 43.9583 31.484C43.6489 31.3558 43.3844 31.1388 43.1983 30.8603C43.0122 30.5818 42.9129 30.2543 42.9129 29.9194C42.9129 29.4702 43.0913 29.0395 43.4089 28.7219C43.7265 28.4043 44.1573 28.2258 44.6064 28.2258ZM41.2193 37.2581C41.2193 36.6592 41.4572 36.0849 41.8807 35.6614C42.3042 35.2379 42.8785 35 43.4774 35H45.7354C46.3343 35 46.9087 35.2379 47.3321 35.6614C47.7556 36.0849 47.9935 36.6592 47.9935 37.2581V41.7742H41.2193V37.2581ZM34.4451 25.9678C34.8917 25.9678 35.3283 26.1002 35.6996 26.3483C36.071 26.5964 36.3604 26.9491 36.5313 27.3617C36.7022 27.7743 36.7469 28.2283 36.6598 28.6664C36.5727 29.1044 36.3576 29.5067 36.0418 29.8225C35.726 30.1383 35.3237 30.3534 34.8857 30.4405C34.4476 30.5276 33.9936 30.4829 33.581 30.312C33.1684 30.1411 32.8157 29.8517 32.5676 29.4803C32.3195 29.109 32.1871 28.6724 32.1871 28.2258C32.1871 27.627 32.425 27.0526 32.8484 26.6291C33.2719 26.2057 33.8462 25.9678 34.4451 25.9678ZM29.929 37.2581C29.929 36.3598 30.2858 35.4983 30.9211 34.8631C31.5563 34.2278 32.4178 33.871 33.3161 33.871H35.5742C36.4725 33.871 37.334 34.2278 37.9692 34.8631C38.6044 35.4983 38.9613 36.3598 38.9613 37.2581V42.9033H29.929V37.2581ZM24.2838 28.2258C24.6188 28.2258 24.9462 28.3252 25.2247 28.5112C25.5032 28.6973 25.7203 28.9618 25.8485 29.2713C25.9766 29.5807 26.0102 29.9213 25.9448 30.2498C25.8795 30.5783 25.7182 30.8801 25.4814 31.1169C25.2445 31.3537 24.9427 31.515 24.6142 31.5804C24.2857 31.6457 23.9452 31.6122 23.6357 31.484C23.3263 31.3558 23.0618 31.1388 22.8757 30.8603C22.6896 30.5818 22.5903 30.2543 22.5903 29.9194C22.5903 29.4702 22.7687 29.0395 23.0863 28.7219C23.4039 28.4043 23.8347 28.2258 24.2838 28.2258ZM20.8967 37.2581C20.8967 36.6592 21.1346 36.0849 21.5581 35.6614C21.9816 35.2379 22.5559 35 23.1548 35H25.4129C26.0117 35 26.5861 35.2379 27.0096 35.6614C27.433 36.0849 27.6709 36.6592 27.6709 37.2581V41.7742H20.8967V37.2581Z" fill="#F68920"/>
</svg>
