<svg width="70" height="70" viewBox="0 0 70 70" fill="none" xmlns="http://www.w3.org/2000/svg">
<path d="M27.6193 44.9277C27.345 44.9278 27.0796 44.8299 26.8711 44.6517L19.3928 38.284C19.2654 38.1755 19.1631 38.0406 19.0929 37.8887C19.0227 37.7368 18.9863 37.5714 18.9863 37.404C18.9863 37.2367 19.0227 37.0713 19.0929 36.9194C19.1631 36.7675 19.2654 36.6326 19.3928 36.5241L26.8711 30.1564C27.1044 29.9577 27.4071 29.8597 27.7125 29.8841C28.018 29.9085 28.3013 30.0533 28.5001 30.2865C28.9135 30.7729 28.8554 31.5021 28.3692 31.9155L21.9247 37.4037L28.3692 42.8918C28.5494 43.0451 28.6782 43.25 28.7383 43.4789C28.7983 43.7077 28.7866 43.9495 28.7048 44.1716C28.623 44.3936 28.4751 44.5851 28.2809 44.7204C28.0868 44.8556 27.8559 44.928 27.6193 44.9277ZM42.3821 44.9277C42.0552 44.9277 41.7303 44.7897 41.5019 44.5208C41.3032 44.2875 41.2053 43.9848 41.2297 43.6793C41.2542 43.3738 41.3989 43.0905 41.6322 42.8918L48.0767 37.4037L41.6322 31.9155C41.4072 31.7144 41.2698 31.4334 41.2493 31.1324C41.2288 30.8313 41.3268 30.5342 41.5224 30.3045C41.718 30.0748 41.9957 29.9307 42.2961 29.903C42.5966 29.8753 42.8959 29.9662 43.1303 30.1562L50.6085 36.5239C50.736 36.6324 50.8383 36.7673 50.9085 36.9192C50.9787 37.0712 51.015 37.2365 51.015 37.4039C51.015 37.5712 50.9787 37.7366 50.9085 37.8885C50.8383 38.0405 50.736 38.1753 50.6085 38.2838L43.1303 44.6515C42.9218 44.8298 42.6565 44.9277 42.3822 44.9277H42.3821ZM32.3534 49.7039C32.1813 49.7041 32.0112 49.6659 31.8558 49.592C31.7003 49.5181 31.5633 49.4104 31.4548 49.2768C31.3462 49.1432 31.2689 48.987 31.2284 48.8197C31.188 48.6524 31.1854 48.4781 31.2209 48.3097L35.8815 26.1811C35.9447 25.8812 36.1244 25.6186 36.3812 25.4512C36.638 25.2838 36.9507 25.2253 37.2507 25.2885C37.5506 25.3517 37.8131 25.5315 37.9805 25.7883C38.1479 26.045 38.2065 26.3578 38.1433 26.6577L33.4826 48.7861C33.4281 49.0454 33.2861 49.278 33.0806 49.445C32.875 49.6121 32.6183 49.7035 32.3534 49.7039Z" fill="#F68920"/>
<path d="M62.2406 61.7595H7.75943C3.48118 61.7595 0 58.279 0 54V7.75943C0 3.48118 3.48118 0 7.75943 0H62.2406C66.5188 0 70 3.48118 70 7.75943V54C70 58.279 66.5188 61.7595 62.2406 61.7595ZM7.75943 2.31132C4.75554 2.31132 2.31132 4.75554 2.31132 7.75943V54C2.31132 57.0039 4.75554 59.4482 7.75943 59.4482H62.2406C65.2445 59.4482 67.6887 57.0039 67.6887 54V7.75943C67.6887 4.75554 65.2445 2.31132 62.2406 2.31132H7.75943Z" fill="#F68920"/>
<path d="M68.8445 18.5055H1.15582C0.852705 18.5004 0.563735 18.3764 0.351187 18.1602C0.138639 17.944 0.0195312 17.653 0.0195312 17.3498C0.0195312 17.0467 0.138639 16.7556 0.351187 16.5395C0.563735 16.3233 0.852705 16.1993 1.15582 16.1942H68.8445C69.1476 16.1993 69.4366 16.3233 69.6491 16.5395C69.8617 16.7556 69.9808 17.0467 69.9808 17.3498C69.9808 17.653 69.8617 17.944 69.6491 18.1602C69.4366 18.3764 69.1476 18.5004 68.8445 18.5055ZM19.7458 12.9755C17.7298 12.9755 16.0884 11.3341 16.0884 9.31815C16.0884 7.30169 17.7298 5.66098 19.7458 5.66098C21.7622 5.66098 23.4029 7.30169 23.4029 9.31815C23.4029 11.3341 21.7622 12.9755 19.7458 12.9755ZM19.7458 7.9723C19.004 7.9723 18.3998 8.57589 18.3998 9.31815C18.3998 10.0604 19.004 10.6642 19.7458 10.6642C20.488 10.6642 21.0916 10.0606 21.0916 9.31815C21.0916 8.57572 20.488 7.9723 19.7458 7.9723ZM8.50912 12.94C6.49233 12.94 4.85179 11.2993 4.85179 9.28282C4.85179 7.2662 6.49233 5.62549 8.50896 5.62549C10.5256 5.62549 12.1661 7.2662 12.1661 9.28282C12.1661 11.2993 10.5258 12.94 8.50912 12.94ZM8.50912 7.93681C7.76736 7.93681 7.16311 8.54105 7.16311 9.28282C7.16311 10.0251 7.76736 10.6287 8.50896 10.6287C9.25122 10.6287 9.85481 10.0251 9.85481 9.28282C9.85481 8.54105 9.25139 7.93681 8.50912 7.93681ZM30.9824 13.0103C28.9666 13.0103 27.3259 11.3696 27.3259 9.35299C27.3259 7.33719 28.9665 5.69648 30.9824 5.69648C32.9991 5.69648 34.6396 7.33702 34.6396 9.35299C34.6396 11.3696 32.9991 13.0103 30.9824 13.0103ZM30.9824 8.00714C30.2408 8.00714 29.6372 8.61072 29.6372 9.35299C29.6372 10.0953 30.2408 10.699 30.9824 10.699C31.7247 10.699 32.3283 10.0953 32.3283 9.35299C32.3283 8.61072 31.7247 8.00714 30.9824 8.00714Z" fill="#F68920"/>
</svg>
