<svg width="26" height="24" viewBox="0 0 26 24" fill="none" xmlns="http://www.w3.org/2000/svg">
<path d="M10.9272 1.16453C11.4317 -0.388176 13.6284 -0.388176 14.1328 1.16453L15.9354 6.71225C16.1611 7.40665 16.8081 7.87679 17.5383 7.87679H23.3715C25.0041 7.87679 25.683 9.96592 24.3622 10.9255L19.6429 14.3542C19.0522 14.7833 18.805 15.5441 19.0307 16.2384L20.8333 21.7862C21.3377 23.3388 19.5607 24.6301 18.2397 23.6705L13.5207 20.2417C12.93 19.8126 12.1301 19.8126 11.5394 20.2417L6.82023 23.6705C5.49943 24.6301 3.72229 23.3388 4.22679 21.7862L6.02936 16.2384C6.25497 15.5441 6.0078 14.7833 5.41713 14.3542L0.69795 10.9255C-0.622869 9.96592 0.0559443 7.87679 1.68855 7.87679H7.52178C8.25191 7.87679 8.89899 7.40665 9.12462 6.71225L10.9272 1.16453Z" fill="#EF5512"/>
</svg>
