<svg width="70" height="70" viewBox="0 0 70 70" fill="none" xmlns="http://www.w3.org/2000/svg">
<g clip-path="url(#clip0_190_256)">
<path d="M65.2262 60.2249C67.8584 60.2249 70 58.0833 70 55.4509V6.83594C70 3.0666 66.9334 0 63.1641 0H6.83594C3.0666 0 0 3.0666 0 6.83594V55.4509C0 58.0833 2.14156 60.2249 4.77381 60.2249H6.28906V67.2656H1.36719C0.61209 67.2656 0 67.8779 0 68.6328C0 69.3878 0.61209 70 1.36719 70H68.6328C69.3879 70 70 69.3878 70 68.6328C70 67.8779 69.3879 67.2656 68.6328 67.2656H63.7109V60.2249H65.2262ZM2.73438 6.83594C2.73438 4.57434 4.57434 2.73438 6.83594 2.73438H63.1641C65.4257 2.73438 67.2656 4.57434 67.2656 6.83594V9.84375H2.87164C2.82529 9.84375 2.77949 9.84621 2.73438 9.85072V6.83594ZM15.0391 67.2656H9.02344V54.9609H15.0391V67.2656ZM30.3516 67.2656H24.3359V39.8442H30.3516V67.2656ZM45.6641 67.2656H39.6484V51.4062H45.6641V67.2656ZM62.3438 35.0684H53.5938C52.8387 35.0684 52.2266 35.6806 52.2266 36.4355V43.3397C52.2266 44.0947 52.8387 44.7069 53.5938 44.7069C54.3488 44.7069 54.9609 44.0947 54.9609 43.3397V37.8027H60.9766V67.2656H54.9609V52.5342C54.9609 51.7792 54.3488 51.167 53.5938 51.167C52.8387 51.167 52.2266 51.7792 52.2266 52.5342V67.2656H48.3984V50.0391C48.3984 49.2841 47.7863 48.6719 47.0312 48.6719H38.2812C37.5262 48.6719 36.9141 49.2841 36.9141 50.0391V67.2656H33.0859V38.477C33.0859 37.7221 32.4738 37.1098 31.7188 37.1098H22.9688C22.2137 37.1098 21.6016 37.7221 21.6016 38.477V67.2656H17.7734V53.5938C17.7734 52.8388 17.1613 52.2266 16.4062 52.2266H7.65625C6.90115 52.2266 6.28906 52.8388 6.28906 53.5938V57.4905H4.77381C3.64916 57.4905 2.73438 56.5756 2.73438 55.4509V12.5712C2.77949 12.5757 2.82529 12.5781 2.87164 12.5781H67.2656V55.4509C67.2656 56.5756 66.3507 57.4905 65.2262 57.4905H63.7109V36.4355C63.7109 35.6806 63.0988 35.0684 62.3438 35.0684Z" fill="#F68920"/>
<path d="M61.25 4.92188H30.3605C29.6054 4.92188 28.9933 5.5341 28.9933 6.28906C28.9933 7.04402 29.6054 7.65625 30.3605 7.65625H61.25C62.0051 7.65625 62.6172 7.04402 62.6172 6.28906C62.6172 5.5341 62.0051 4.92188 61.25 4.92188ZM15.1854 5.32246C14.9311 5.06816 14.5783 4.92188 14.2188 4.92188C13.8592 4.92188 13.5064 5.06803 13.2521 5.32246C12.9979 5.57676 12.8516 5.92949 12.8516 6.28906C12.8516 6.64863 12.9979 7.00137 13.2521 7.25553C13.5064 7.50996 13.8592 7.65625 14.2188 7.65625C14.5783 7.65625 14.9311 7.50996 15.1854 7.25553C15.4396 7.00137 15.5859 6.64863 15.5859 6.28906C15.5859 5.92949 15.4396 5.57676 15.1854 5.32246ZM9.7166 5.32246C9.4623 5.06816 9.10957 4.92188 8.75 4.92188C8.39043 4.92188 8.0377 5.06803 7.7834 5.32246C7.5291 5.57676 7.38281 5.92949 7.38281 6.28906C7.38281 6.64863 7.5291 7.00137 7.7834 7.25553C8.0377 7.50996 8.39043 7.65625 8.75 7.65625C9.10957 7.65625 9.4623 7.50996 9.7166 7.25553C9.9709 7.00137 10.1172 6.64863 10.1172 6.28906C10.1172 5.92949 9.9709 5.57676 9.7166 5.32246ZM20.6541 5.32246C20.3973 5.06678 20.0499 4.92282 19.6875 4.92188C19.3279 4.92188 18.9752 5.06803 18.7209 5.32246C18.4666 5.57676 18.3203 5.92949 18.3203 6.28906C18.3203 6.64863 18.4666 7.00137 18.7209 7.25553C18.9752 7.50996 19.3279 7.65625 19.6875 7.65625C20.0471 7.65625 20.3998 7.50996 20.6541 7.25553C20.9084 7.00137 21.0547 6.64863 21.0547 6.28906C21.0547 5.92949 20.9084 5.57676 20.6541 5.32246ZM54.5604 47.2459C54.3061 46.9902 53.9533 46.8453 53.5938 46.8453C53.2342 46.8453 52.8814 46.9904 52.6272 47.2459C52.3729 47.5002 52.2266 47.8529 52.2266 48.2125C52.2266 48.5721 52.3729 48.9248 52.6272 49.1791C52.8814 49.4333 53.2342 49.5797 53.5938 49.5797C53.9533 49.5797 54.3061 49.4334 54.5604 49.1791C54.8147 48.9248 54.9609 48.5721 54.9609 48.2125C54.9609 47.8516 54.8147 47.5002 54.5604 47.2459ZM57.9688 18.5854C55.2548 18.5854 53.0469 20.7933 53.0469 23.5073C53.046 24.5449 53.375 25.556 53.9863 26.3945L44.9047 35.4761C44.1778 35.0733 43.3603 34.8623 42.5292 34.8631C41.7791 34.8625 41.0389 35.0343 40.3658 35.3654L30.8831 25.8828C31.2859 25.1559 31.4969 24.3383 31.496 23.5073C31.496 20.7933 29.2882 18.5854 26.5742 18.5854C23.8602 18.5854 21.6523 20.7933 21.6523 23.5073C21.6523 24.4558 21.9227 25.342 22.3895 26.0943L14.3158 34.1678C13.589 33.765 12.7715 33.5541 11.9405 33.5549C9.22646 33.5549 7.01859 35.7628 7.01859 38.4768C7.01859 41.1908 9.22646 43.3986 11.9405 43.3986C14.6545 43.3986 16.8623 41.1908 16.8623 38.4768C16.8623 37.6157 16.6395 36.8061 16.2494 36.1013L24.4195 27.9312C25.0903 28.2595 25.8274 28.4297 26.5742 28.429C27.4351 28.429 28.2447 28.2062 28.9495 27.8161L38.3394 37.2058C37.86 37.9805 37.6065 38.8737 37.6074 39.7847C37.6074 42.4988 39.8152 44.7066 42.5292 44.7066C45.2432 44.7066 47.4511 42.4988 47.4511 39.7847C47.4511 38.9237 47.2283 38.114 46.8382 37.4093L56.1631 28.0844C56.7378 28.3124 57.3505 28.4294 57.9688 28.4292C60.6828 28.4292 62.8906 26.2213 62.8906 23.5073C62.8906 20.7933 60.6828 18.5854 57.9688 18.5854ZM11.9406 40.6645C10.7345 40.6645 9.75311 39.6832 9.75311 38.477C9.75311 37.2709 10.7345 36.2895 11.9406 36.2895C13.1467 36.2895 14.1281 37.2709 14.1281 38.477C14.1281 39.6832 13.1467 40.6645 11.9406 40.6645ZM26.5743 25.6948C25.3682 25.6948 24.3868 24.7134 24.3868 23.5073C24.3868 22.3012 25.3682 21.3198 26.5743 21.3198C27.7804 21.3198 28.7618 22.3012 28.7618 23.5073C28.7618 24.7134 27.7804 25.6948 26.5743 25.6948ZM42.5294 41.9725C41.3232 41.9725 40.3419 40.9912 40.3419 39.785C40.3419 38.5789 41.3232 37.5975 42.5294 37.5975C43.7355 37.5975 44.7169 38.5789 44.7169 39.785C44.7169 40.9912 43.7355 41.9725 42.5294 41.9725ZM57.9688 25.6948C56.7626 25.6948 55.7813 24.7134 55.7813 23.5073C55.7813 22.3012 56.7626 21.3198 57.9688 21.3198C59.1749 21.3198 60.1563 22.3012 60.1563 23.5073C60.1563 24.7134 59.1749 25.6948 57.9688 25.6948ZM20.2795 17.63C20.0224 17.3747 19.6752 17.2308 19.3129 17.2293C18.952 17.2293 18.5992 17.3756 18.3449 17.63C18.0906 17.8842 17.9457 18.2369 17.9457 18.5965C17.9457 18.9561 18.0906 19.3088 18.3449 19.5631C18.6024 19.8186 18.9501 19.9625 19.3129 19.9637C19.6725 19.9637 20.0238 19.8175 20.2795 19.5631C20.5338 19.3088 20.6801 18.9561 20.6801 18.5965C20.6801 18.2369 20.5338 17.8842 20.2795 17.63ZM14.2188 17.2294H7.65625C6.90115 17.2294 6.28906 17.8417 6.28906 18.5966C6.28906 19.3516 6.90115 19.9638 7.65625 19.9638H14.2188C14.9738 19.9638 15.5859 19.3516 15.5859 18.5966C15.5859 17.8417 14.9738 17.2294 14.2188 17.2294ZM14.2188 23.7919H7.65625C6.90115 23.7919 6.28906 24.4042 6.28906 25.1591C6.28906 25.9141 6.90115 26.5263 7.65625 26.5263H14.2188C14.9738 26.5263 15.5859 25.9141 15.5859 25.1591C15.5859 24.4042 14.9738 23.7919 14.2188 23.7919Z" fill="#F68920"/>
</g>
<defs>
<clipPath id="clip0_190_256">
<rect width="70" height="70" fill="white"/>
</clipPath>
</defs>
</svg>
