<svg width="70" height="70" viewBox="0 0 70 70" fill="none" xmlns="http://www.w3.org/2000/svg">
<g clip-path="url(#clip0_190_251)">
<path d="M66.8426 11.4844H52.5C52.3653 11.4843 52.232 11.5108 52.1075 11.5623C51.9831 11.6138 51.87 11.6894 51.7748 11.7846C51.6796 11.8798 51.6041 11.9929 51.5526 12.1173C51.501 12.2417 51.4746 12.3751 51.4746 12.5098C51.4746 13.0765 51.9333 13.5352 52.5 13.5352H66.8426C67.4531 13.5352 67.9492 14.0313 67.9492 14.6418V54.1278C67.9492 54.7382 67.4531 55.2344 66.8426 55.2344H3.15738C2.54693 55.2344 2.05078 54.7382 2.05078 54.1278V14.6418C2.05078 14.0313 2.54693 13.5352 3.15738 13.5352H25.686V15.5859H5.12695C4.99228 15.5859 4.85892 15.6124 4.73449 15.6639C4.61006 15.7154 4.497 15.7909 4.40177 15.8861C4.30655 15.9814 4.23102 16.0944 4.17951 16.2189C4.12799 16.3433 4.10151 16.4767 4.10156 16.6113V43.7046C4.10156 43.9766 4.20959 44.2374 4.40189 44.4297C4.59419 44.622 4.855 44.73 5.12695 44.73C5.3989 44.73 5.65972 44.622 5.85201 44.4297C6.04431 44.2374 6.15234 43.9766 6.15234 43.7046V17.6367H25.686V23.1375L21.296 25.2347C21.1219 25.3189 20.9749 25.4503 20.8718 25.614C20.7687 25.7776 20.7137 25.9669 20.7129 26.1603V42.8827C20.7129 43.2778 20.9398 43.6379 21.2961 43.8082L34.5579 50.1443C34.6962 50.2093 34.8472 50.2431 35 50.2431C35.1528 50.2431 35.3038 50.2093 35.4421 50.1443L42.8977 46.5821C43.0192 46.524 43.1281 46.4426 43.2181 46.3424C43.3081 46.2423 43.3776 46.1254 43.4224 45.9984C43.4672 45.8714 43.4866 45.7368 43.4795 45.6023C43.4723 45.4679 43.4387 45.3361 43.3807 45.2146C43.3226 45.0931 43.2411 44.9842 43.141 44.8942C43.0408 44.8042 42.9239 44.7347 42.7969 44.6899C42.6699 44.645 42.5353 44.6257 42.4009 44.6328C42.2664 44.64 42.1346 44.6736 42.0131 44.7316L36.0254 47.5925V33.1427L47.2363 27.7864V42.2365L45.7133 42.9639C45.4705 43.0827 45.2845 43.2925 45.1956 43.5477C45.1068 43.8029 45.1222 44.0829 45.2387 44.3268C45.3552 44.5707 45.5632 44.7587 45.8176 44.85C46.0719 44.9413 46.3521 44.9285 46.597 44.8144L48.7039 43.8081C48.8785 43.7246 49.0259 43.5934 49.1291 43.4296C49.2323 43.2658 49.2871 43.0762 49.2871 42.8827V26.1603C49.2864 25.9669 49.2314 25.7775 49.1283 25.6138C49.0251 25.4502 48.8781 25.3188 48.7039 25.2347L44.314 23.1375V17.6367H63.8477V51.1328H6.15234V48.0796C6.15234 47.5129 5.69365 47.0542 5.12695 47.0542C4.99228 47.0542 4.85892 47.0807 4.73449 47.1322C4.61006 47.1837 4.497 47.2592 4.40177 47.3544C4.30655 47.4497 4.23102 47.5627 4.17951 47.6871C4.12799 47.8116 4.10151 47.9449 4.10156 48.0796V52.1582C4.10156 52.7249 4.56025 53.1836 5.12695 53.1836H64.873C65.4397 53.1836 65.8984 52.7249 65.8984 52.1582V16.6113C65.8984 16.0446 65.4397 15.5859 64.873 15.5859H44.314V13.5352H48.125C48.6917 13.5352 49.1504 13.0765 49.1504 12.5098C49.1504 11.9431 48.6917 11.4844 48.125 11.4844H44.314V9.43359H53.5083C54.075 9.43359 54.5337 8.9749 54.5337 8.4082V5.97598C55.7272 5.55256 56.5845 4.41287 56.5845 3.07617C56.5845 1.38004 55.2044 0 53.5083 0C51.8122 0 50.4321 1.38004 50.4321 3.07617C50.4321 4.41287 51.2894 5.55256 52.4829 5.97598V7.38281H43.2886C43.1539 7.38276 43.0205 7.40924 42.8961 7.46076C42.7717 7.51227 42.6586 7.5878 42.5634 7.68302C42.4682 7.77825 42.3926 7.89131 42.3411 8.01574C42.2896 8.14017 42.2631 8.27353 42.2632 8.4082V11.4844H36.0254V5.97598C37.2189 5.55256 38.0762 4.41287 38.0762 3.07617C38.0762 1.38004 36.6961 0 35 0C33.3039 0 31.9238 1.38004 31.9238 3.07617C31.9238 4.41287 32.7811 5.55256 33.9746 5.97598V11.4844H27.7368V8.4082C27.7368 7.8415 27.2781 7.38281 26.7114 7.38281H17.5171V5.97598C18.7106 5.55256 19.5679 4.41287 19.5679 3.07617C19.5679 1.38004 18.1878 0 16.4917 0C14.7956 0 13.4155 1.38004 13.4155 3.07617C13.4155 4.41287 14.2728 5.55256 15.4663 5.97598V8.4082C15.4663 8.9749 15.925 9.43359 16.4917 9.43359H25.686V11.4844H3.15738C1.41627 11.4844 0 12.9008 0 14.6418V54.1278C0 55.8689 1.41641 57.2852 3.15738 57.2852H25.388C24.9912 61.0466 22.5042 63.2431 21.7201 63.8477H17.3633C15.6671 63.8477 14.2871 65.2277 14.2871 66.9238C14.2871 68.62 15.6671 70 17.3633 70H52.6367C54.3329 70 55.7129 68.62 55.7129 66.9238C55.7129 65.2277 54.3329 63.8477 52.6367 63.8477H48.2825C47.5087 63.2453 45.013 61.0289 44.613 57.2852H66.8426C68.5837 57.2852 70 55.8688 70 54.1278V14.6418C70 12.9006 68.5836 11.4844 66.8426 11.4844ZM53.5083 2.05078C54.0739 2.05078 54.5337 2.51057 54.5337 3.07617C54.5337 3.64178 54.0739 4.10156 53.5083 4.10156C52.9427 4.10156 52.4829 3.64178 52.4829 3.07617C52.4829 2.51057 52.9427 2.05078 53.5083 2.05078ZM35 2.05078C35.5656 2.05078 36.0254 2.51057 36.0254 3.07617C36.0254 3.64178 35.5656 4.10156 35 4.10156C34.4344 4.10156 33.9746 3.64178 33.9746 3.07617C33.9746 2.51057 34.4344 2.05078 35 2.05078ZM16.4917 2.05078C17.0573 2.05078 17.5171 2.51057 17.5171 3.07617C17.5171 3.64178 17.0573 4.10156 16.4917 4.10156C15.9261 4.10156 15.4663 3.64178 15.4663 3.07617C15.4663 2.51057 15.9261 2.05078 16.4917 2.05078ZM27.7368 17.6367H33.9746V19.1775L27.7368 22.158V17.6367ZM45.8831 26.1603L35 31.3592L24.1169 26.1602L35 20.9608L45.8831 26.1603ZM22.7637 27.7864L33.9746 33.1425V47.5925L22.7637 42.2365V27.7864ZM42.2632 22.158L36.0254 19.1775V17.6367H42.2632V22.158ZM42.2632 13.5352V15.5859H36.0254V13.5352H42.2632ZM33.9746 13.5352V15.5859H27.7368V13.5352H33.9746ZM53.6621 66.9238C53.6621 67.4894 53.2023 67.9492 52.6367 67.9492H17.3633C16.7977 67.9492 16.3379 67.4894 16.3379 66.9238C16.3379 66.3582 16.7977 65.8984 17.3633 65.8984H52.6367C53.2023 65.8984 53.6621 66.3582 53.6621 66.9238ZM45.3414 63.8477H24.6586C25.8606 62.4436 27.1942 60.2556 27.45 57.2852H42.55C42.8057 60.2556 44.1392 62.4436 45.3414 63.8477Z" fill="#F68920"/>
</g>
<defs>
<clipPath id="clip0_190_251">
<rect width="70" height="70" fill="white"/>
</clipPath>
</defs>
</svg>
