<svg width="26" height="24" viewBox="0 0 26 24" fill="none" xmlns="http://www.w3.org/2000/svg">
<path d="M11.5327 1.16453C12.0372 -0.388176 14.2338 -0.388176 14.7383 1.16453L16.5409 6.71225C16.7665 7.40665 17.4135 7.87679 18.1438 7.87679H23.977C25.6096 7.87679 26.2884 9.96592 24.9676 10.9255L20.2484 14.3542C19.6577 14.7833 19.4105 15.5441 19.6361 16.2384L21.4387 21.7862C21.9432 23.3388 20.1662 24.6301 18.8452 23.6705L14.1261 20.2417C13.5354 19.8126 12.7356 19.8126 12.1449 20.2417L7.4257 23.6705C6.1049 24.6301 4.32776 23.3388 4.83226 21.7862L6.63483 16.2384C6.86044 15.5441 6.61327 14.7833 6.0226 14.3542L1.30342 10.9255C-0.0174 9.96592 0.661413 7.87679 2.29402 7.87679H8.12724C8.85738 7.87679 9.50446 7.40665 9.73009 6.71225L11.5327 1.16453Z" fill="#4B5563"/>
</svg>
