<svg width="70" height="70" viewBox="0 0 70 70" fill="none" xmlns="http://www.w3.org/2000/svg">
<path d="M61.25 37.1875H12.0312C10.2189 37.1875 8.75 35.7186 8.75 33.9062H64.5312C64.5312 35.7186 63.0623 37.1875 61.25 37.1875Z" fill="#E8E5DF"/>
<path d="M16.4062 35H29.5312C32.5511 35 35 32.5511 35 29.5312V26.1767C35 20.7813 30.6742 13.125 29.3858 13.125H16.5517C15.2633 13.125 10.9375 20.7813 10.9375 26.1767V29.5312C10.9375 32.5511 13.3864 35 16.4062 35Z" fill="#FEBE07"/>
<path d="M31.4675 4.68233L29.1816 5.8253C28.8349 5.9992 28.4138 5.89967 28.1808 5.58905L26.7316 3.65639C26.4385 3.26592 25.8675 3.22545 25.523 3.56998L23.6221 5.47092C23.2764 5.81655 22.7066 5.77608 22.4135 5.38451L21.1174 3.65639C20.8242 3.26592 20.2533 3.22545 19.9088 3.56998L17.6885 5.7903C17.4828 5.99592 17.181 6.07467 16.901 5.99483L13.5814 5.04654C12.8978 4.85186 12.316 5.57811 12.6572 6.20264L16.4066 13.125H29.5316L32.5667 5.70826C32.8533 5.02248 32.1325 4.35092 31.4675 4.68233Z" fill="#FEBE07"/>
<path d="M29.5321 35C32.5519 35 35.0008 32.5511 35.0008 29.5312V26.1767C35.0008 20.7813 30.675 13.125 29.3866 13.125H16.5525C15.8219 13.125 23.5088 13.5964 27.3446 19.6875C30.2725 24.337 29.5321 35 29.5321 35Z" fill="#E3A800"/>
<path d="M31.4681 4.68234L29.9216 5.45562C26.917 8.46999 23.1414 10.6203 18.9906 11.6583L16.0156 12.402L16.4072 13.125H29.5322L32.5673 5.70827C32.8539 5.02249 32.1331 4.35093 31.4681 4.68234Z" fill="#E3A800"/>
<path d="M31.7188 32.8125H18.5938C15.5739 32.8125 13.125 30.3636 13.125 27.3438V23.9892C13.125 20.3886 15.05 15.7916 16.7147 13.125H16.5517C15.2633 13.125 10.9375 20.7813 10.9375 26.1767V29.5312C10.9375 32.5511 13.3864 35 16.4062 35H29.5312C31.6061 35 33.3889 33.8308 34.3164 32.1289C33.5398 32.5511 32.6637 32.8125 31.7188 32.8125Z" fill="#E3A800"/>
<path d="M38.2812 4.375H49.2188V35H38.2812V4.375Z" fill="#CBE6FE"/>
<path d="M49.2188 17.5L44.8438 21.875L40.4688 26.25H42.6562V35H49.2188V17.5Z" fill="#A9C6EB"/>
<path d="M32.0469 17.5H28.4375V35H38.2812V17.5H32.0469Z" fill="#CBE6FE"/>
<path d="M51.4062 29.5312H55.7812V35H51.4062V29.5312Z" fill="#A9C6EB"/>
<path d="M63.117 32.8125C61.973 32.8125 60.9263 33.4589 60.4144 34.4827L60.1562 35L56.875 41.5625L49.2188 44.8438C49.2188 42.4277 47.2598 40.4688 44.8438 40.4688H29.0959C22.9764 40.4688 17.01 42.3806 12.0312 45.9375V62.3438H37.8503C43.1353 62.3438 48.3131 60.8584 52.7942 58.0573C59.57 53.8234 64.2305 46.9142 65.6184 39.0469L66.0931 36.3584C66.4191 34.5089 64.9961 32.8125 63.117 32.8125Z" fill="#FFE5CF"/>
<path d="M60.1562 26.25H47.0312V35H51.4062V29.5312H55.7812V35H60.1562V26.25Z" fill="#CBE6FE"/>
<path d="M62.3438 26.25L53.5938 17.5L49.2188 21.875L44.8438 26.25H62.3438Z" fill="#E3A800"/>
<path d="M35 17.5H38.2812V35H35V17.5Z" fill="#A9C6EB"/>
<path d="M14.3052 44.4817C13.5297 44.9345 12.7663 45.4125 12.0312 45.9375V62.3438H37.8503L31.6433 61.7695C22.3836 60.912 15.1659 53.5708 14.3052 44.4817Z" fill="#F5DCC7"/>
<path d="M25.1562 21.875V20.7812C25.1562 20.1775 24.6673 19.6875 24.0625 19.6875H22.9688V18.5938H20.7812V19.6875H19.6875C19.0827 19.6875 18.5938 20.1775 18.5938 20.7812V24.0625C18.5938 24.6662 19.0827 25.1562 19.6875 25.1562H22.9688V26.25H18.5938V27.3438C18.5938 27.9475 19.0827 28.4375 19.6875 28.4375H20.7812V29.5312H22.9688V28.4375H24.0625C24.6673 28.4375 25.1562 27.9475 25.1562 27.3438V24.0625C25.1562 23.4588 24.6673 22.9688 24.0625 22.9688H20.7812V21.875H25.1562Z" fill="#FEFEFE"/>
<path d="M44.8438 51.4062H27.3438V49.2188H44.8438C46.6528 49.2188 49.2188 46.6528 49.2188 44.8438L50.3125 45.9375C50.3125 48.953 47.8592 51.4062 44.8438 51.4062Z" fill="#F5DCC7"/>
<path d="M41.5625 7.65625H42.6562V9.84375H41.5625V7.65625Z" fill="#2B67B3"/>
<path d="M44.8438 7.65625H45.9375V9.84375H44.8438V7.65625Z" fill="#2B67B3"/>
<path d="M41.5625 12.0312H42.6562V14.2188H41.5625V12.0312Z" fill="#2B67B3"/>
<path d="M44.8438 12.0312H45.9375V14.2188H44.8438V12.0312Z" fill="#2B67B3"/>
<path d="M41.5625 16.4062H42.6562V18.5938H41.5625V16.4062Z" fill="#2B67B3"/>
<path d="M44.8438 16.4062H45.9375V18.5938H44.8438V16.4062Z" fill="#2B67B3"/>
<path d="M31.7188 20.7812H32.8125V22.9688H31.7188V20.7812Z" fill="#2B67B3"/>
<path d="M35 20.7812H36.0938V22.9688H35V20.7812Z" fill="#2B67B3"/>
<path d="M31.7188 25.1562H32.8125V27.3438H31.7188V25.1562Z" fill="#2B67B3"/>
<path d="M35 25.1562H36.0938V27.3438H35V25.1562Z" fill="#2B67B3"/>
<path d="M31.7188 29.5312H32.8125V31.7188H31.7188V29.5312Z" fill="#2B67B3"/>
<path d="M35 29.5312H36.0938V31.7188H35V29.5312Z" fill="#2B67B3"/>
<path d="M41.5625 20.7812H42.6562V22.9688H41.5625V20.7812Z" fill="#2B67B3"/>
<path d="M44.8438 20.7812H45.9375V22.9688H44.8438V20.7812Z" fill="#2B67B3"/>
<path d="M57.9688 4.375H60.1562V6.5625H57.9688V4.375Z" fill="#FEBE07"/>
<path d="M60.1562 2.1875H62.3438V4.375H60.1562V2.1875Z" fill="#FEBE07"/>
<path d="M62.3438 4.375H64.5312V6.5625H62.3438V4.375Z" fill="#FEBE07"/>
<path d="M60.1562 6.5625H62.3438V8.75H60.1562V6.5625Z" fill="#FEBE07"/>
<path d="M65.625 9.84375H67.8125V12.0312H65.625V9.84375Z" fill="#FEBE07"/>
<path d="M57.9688 13.125H60.1562V15.3125H57.9688V13.125Z" fill="#FEBE07"/>
<path d="M2.1875 12.0312H4.375V14.2188H2.1875V12.0312Z" fill="#FEBE07"/>
<path d="M4.375 9.84375H6.5625V12.0312H4.375V9.84375Z" fill="#FEBE07"/>
<path d="M6.5625 12.0312H8.75V14.2188H6.5625V12.0312Z" fill="#FEBE07"/>
<path d="M4.375 14.2188H6.5625V16.4062H4.375V14.2188Z" fill="#FEBE07"/>
<path d="M2.1875 20.7812H4.375V22.9688H2.1875V20.7812Z" fill="#FEBE07"/>
<path d="M6.5625 2.1875H8.75V4.375H6.5625V2.1875Z" fill="#FEBE07"/>
<path d="M10.9375 40.4688H4.375C3.77125 40.4688 3.28125 40.9588 3.28125 41.5625V65.625C3.28125 66.2288 3.77125 66.7188 4.375 66.7188H10.9375C11.5413 66.7188 12.0312 66.2288 12.0312 65.625V41.5625C12.0312 40.9588 11.5413 40.4688 10.9375 40.4688Z" fill="#2B67B3"/>
<path d="M7.65625 48.125C7.0525 48.125 6.5625 47.635 6.5625 47.0312V45.9375C6.5625 45.3338 7.0525 44.8438 7.65625 44.8438C8.26 44.8438 8.75 45.3338 8.75 45.9375V47.0312C8.75 47.635 8.26 48.125 7.65625 48.125Z" fill="#FEFEFE"/>
</svg>
