<svg width="70" height="70" viewBox="0 0 70 70" fill="none" xmlns="http://www.w3.org/2000/svg">
<path d="M44.047 47.3508V62.0648H25.9512V47.3508H31.5061V52.2197C31.5061 54.1488 33.0698 55.7126 34.9989 55.7126C36.928 55.7126 38.4918 54.1488 38.4918 52.2197V47.3508H44.047Z" fill="#7A6E79"/>
<path d="M39.3359 47.3508H44.0458V62.0648H39.3359V47.3508Z" fill="#685E67"/>
<path d="M38.4922 47.3508H44.0471V52.0662H38.4922V47.3508Z" fill="#685E67"/>
<path d="M25.9512 47.3508H31.5061V52.0662H25.9512V47.3508Z" fill="#685E67"/>
<path d="M69.9986 8.15637V42.0789H19.5352V5.33941H67.1816C68.738 5.33941 69.9986 6.60147 69.9986 8.15637Z" fill="#F2EFF2"/>
<path d="M20.2408 5.33941V42.0789H0V8.15637C0 6.60147 1.26055 5.33941 2.81695 5.33941H20.2408Z" fill="#21C1F8"/>
<path d="M15.8203 5.33941H20.24V42.0789H15.8203V5.33941Z" fill="#1FAAEE"/>
<path d="M69.9996 8.15637V42.0789H64.5884V8.15637C64.5884 6.60147 63.3279 5.33941 61.7715 5.33941H67.1827C68.7391 5.33941 69.9996 6.60147 69.9996 8.15637Z" fill="#E1DDE1"/>
<path d="M70 41.3746V45.938C70 47.4943 68.7395 48.755 67.183 48.755H2.81695C1.26055 48.755 0 47.4943 0 45.938V41.3746H70Z" fill="#918291"/>
<path d="M69.9998 41.3746V45.938C69.9998 47.4943 68.7392 48.755 67.1828 48.755H61.7715C63.3278 48.755 64.5884 47.4945 64.5884 45.938V41.3746H69.9998Z" fill="#7A6E79"/>
<path d="M47.5462 64.6599H22.4534C21.6755 64.6599 21.0449 64.0294 21.0449 63.2514V61.3041C21.0449 60.5262 21.6755 59.8957 22.4534 59.8957H47.5462C48.3241 59.8957 48.9547 60.5262 48.9547 61.3041V63.2514C48.9547 64.0292 48.324 64.6599 47.5462 64.6599Z" fill="#918291"/>
<path d="M48.9549 61.3041V63.252C48.9549 64.0295 48.3239 64.6604 47.5464 64.6604H43.6816C44.4592 64.6604 45.0901 64.0295 45.0901 63.252V61.3041C45.0901 60.5268 44.4592 59.8957 43.6816 59.8957H47.5464C48.3239 59.8958 48.9549 60.5268 48.9549 61.3041Z" fill="#7A6E79"/>
<path d="M27.7214 63.1422L25.8414 38.9971C25.7842 38.2639 25.1727 37.698 24.4371 37.698H7.61281C6.8774 37.698 6.26572 38.2639 6.20857 38.9971L4.32855 63.1422C4.26484 63.9607 4.91179 64.66 5.73279 64.66H26.3173C27.1382 64.6599 27.7851 63.9606 27.7214 63.1422Z" fill="#FEE265"/>
<path d="M14.1357 63.2456C14.0705 64.0064 14.6704 64.6599 15.4341 64.6599H24.441V41.3757H17.2068C16.5303 41.3757 15.9662 41.8935 15.9084 42.5675" fill="#FDD330"/>
<path d="M26.3174 64.6606H21.9936C22.8147 64.6606 23.4611 63.9606 23.3978 63.1423L21.5175 38.9972C21.4612 38.2635 20.8486 37.6987 20.1133 37.6987H24.4373C25.1739 37.6987 25.7852 38.2635 25.8415 38.9972L27.7217 63.1422C27.7851 63.9606 27.1386 64.6606 26.3174 64.6606Z" fill="#FDD330"/>
<path d="M16.7254 52.5312C13.0137 52.5312 9.99414 49.5116 9.99414 45.8001V41.6743C9.99414 41.091 10.4671 40.6181 11.0504 40.6181C11.6339 40.6181 12.1067 41.091 12.1067 41.6743V45.8001C12.1067 48.3468 14.1786 50.4186 16.7254 50.4186C19.272 50.4186 21.3438 48.3468 21.3438 45.8001V41.6743C21.3438 41.091 21.8168 40.6181 22.4001 40.6181C22.9835 40.6181 23.4564 41.091 23.4564 41.6743V45.8001C23.4564 49.5116 20.437 52.5312 16.7254 52.5312Z" fill="#EDBE26"/>
<path d="M19.0901 42.5675L17.3174 63.2455C17.2521 64.0064 17.8521 64.6599 18.6158 64.6599H34.2176C34.9811 64.6599 35.5812 64.0062 35.516 63.2455L33.7434 42.5675C33.6856 41.8935 33.1216 41.3757 32.445 41.3757H20.3885C19.7118 41.3757 19.1477 41.8935 19.0901 42.5675Z" fill="#FB3A82"/>
<path d="M34.2173 64.6606H29.6707C30.4343 64.6606 31.035 64.0064 30.9686 63.2454L29.1963 42.5675C29.139 41.8938 28.5748 41.3752 27.8984 41.3752H32.445C33.1214 41.3752 33.6856 41.8938 33.7429 42.5675L35.5164 63.2454C35.5818 64.0064 34.981 64.6606 34.2173 64.6606Z" fill="#FB1466"/>
<path d="M26.5788 61.5293C24.2823 61.5293 22.4141 59.661 22.4141 57.3646C22.4141 55.0681 24.2823 53.1998 26.5788 53.1998C27.6671 53.1998 28.6966 53.617 29.4776 54.3744C29.883 54.7676 29.9075 55.41 29.533 55.833L27.3605 58.287C26.9739 58.7237 26.3063 58.7641 25.8695 58.3776C25.4327 57.991 25.3921 57.3233 25.7788 56.8865L27.1108 55.3819C26.939 55.3361 26.7606 55.3124 26.5788 55.3124C25.4473 55.3124 24.5268 56.2329 24.5268 57.3644C24.5268 58.4959 25.4473 59.4166 26.5788 59.4166C27.3645 59.4166 28.0694 58.9784 28.4187 58.2731C28.6777 57.7505 29.3114 57.5363 29.8342 57.7952C30.357 58.054 30.571 58.6877 30.3122 59.2107C29.604 60.6409 28.1735 61.5293 26.5788 61.5293Z" fill="#E01058"/>
<path d="M26.4174 51.4071C23.9117 51.4071 21.873 49.3685 21.873 46.8627V45.0648C21.873 44.4814 22.346 44.0085 22.9293 44.0085C23.5129 44.0085 23.9856 44.4814 23.9856 45.0648V46.8627C23.9856 48.2035 25.0765 49.2944 26.4173 49.2944C27.7582 49.2944 28.8491 48.2035 28.8491 46.8627V45.0648C28.8491 44.4814 29.322 44.0085 29.9054 44.0085C30.4888 44.0085 30.9617 44.4814 30.9617 45.0648V46.8627C30.9618 49.3685 28.9232 51.4071 26.4174 51.4071Z" fill="#E01058"/>
<path d="M51.7048 26.2538C51.2313 26.2538 50.8005 25.9332 50.6808 25.4531L49.72 21.6059H46.4372C45.8536 21.6059 45.3809 21.133 45.3809 20.5496C45.3809 19.9663 45.8538 19.4933 46.4372 19.4933H50.545C51.0298 19.4933 51.4524 19.8234 51.5698 20.2938L52.7305 24.9413C52.8718 25.5073 52.5276 26.0807 51.9615 26.2221C51.8757 26.2434 51.7896 26.2538 51.7048 26.2538Z" fill="#B5ADB6"/>
<path d="M64.7495 33.0881C64.7495 32.5047 64.2766 32.0318 63.6932 32.0318H53.922V29.8447C53.922 29.2614 53.449 28.7885 52.8657 28.7885C52.2823 28.7885 51.8094 29.2614 51.8094 29.8447V32.2499C51.8094 32.5779 51.8933 32.8866 52.0406 33.1559C51.6385 33.6595 51.3965 34.2962 51.3965 34.9892C51.3965 36.6131 52.7176 37.9343 54.3414 37.9343C55.9652 37.9343 57.2863 36.6131 57.2863 34.9892C57.2863 34.6955 57.2419 34.4124 57.1615 34.1445H58.5236C58.4432 34.4124 58.3988 34.6955 58.3988 34.9892C58.3988 36.6131 59.7199 37.9343 61.3437 37.9343C62.9677 37.9343 64.2888 36.6131 64.2888 34.9892C64.2888 34.6598 64.2321 34.3442 64.132 34.0482C64.4961 33.8814 64.7495 33.5147 64.7495 33.0881ZM54.3414 35.8214C53.8824 35.8214 53.5091 35.448 53.5091 34.9891C53.5091 34.5301 53.8823 34.1567 54.3414 34.1567C54.8005 34.1567 55.1737 34.5301 55.1737 34.9891C55.1736 35.448 54.8004 35.8214 54.3414 35.8214ZM61.3437 35.8214C60.8848 35.8214 60.5114 35.448 60.5114 34.9891C60.5114 34.5301 60.8846 34.1567 61.3437 34.1567C61.8028 34.1567 62.1762 34.5301 62.1762 34.9891C62.1762 35.448 61.8027 35.8214 61.3437 35.8214Z" fill="#B5ADB6"/>
<path d="M64.2399 24.1039L63.2767 28.6886C63.1351 29.3627 62.5406 29.8453 61.8518 29.8453H52.2886C51.9654 29.8453 51.6836 29.6253 51.6054 29.3117L50.3045 24.101C50.1935 23.6566 50.5297 23.2262 50.9877 23.2262H63.5274C63.9897 23.2262 64.3349 23.6515 64.2399 24.1039Z" fill="#FB3A82"/>
<path d="M64.2384 24.1042L63.2759 28.6892C63.1347 29.3634 62.5392 29.8453 61.8505 29.8453H58.4492C59.1379 29.8453 59.7319 29.3634 59.8731 28.6892L60.837 24.1042C60.9316 23.6514 60.5865 23.2262 60.125 23.2262H63.5263C63.9895 23.2262 64.3345 23.6514 64.2384 24.1042Z" fill="#FB1466"/>
<path d="M41.8147 36.2016H36.0563C35.4728 36.2016 35 35.7287 35 35.1453C35 34.5619 35.4729 34.089 36.0563 34.089H41.8147C42.3983 34.089 42.871 34.5619 42.871 35.1453C42.871 35.7286 42.3983 36.2016 41.8147 36.2016Z" fill="#CECECE"/>
<path d="M41.1697 37.9341C40.8994 37.9341 40.629 37.8309 40.4226 37.6247C40.0102 37.2122 40.0102 36.5434 40.4226 36.1308L41.4082 35.1452L40.4226 34.1596C40.0102 33.7471 40.0102 33.0783 40.4226 32.6656C40.8353 32.2532 41.504 32.2532 41.9167 32.6656L43.6492 34.3981C44.0617 34.8106 44.0617 35.4795 43.6492 35.8921L41.9167 37.6246C41.7103 37.8309 41.44 37.9341 41.1697 37.9341Z" fill="#CECECE"/>
<path d="M41.4933 30.1137H28.3186C27.5407 30.1137 26.9102 29.4831 26.9102 28.7052V25.0564C26.9102 24.2785 27.5407 23.648 28.3186 23.648H41.4933C42.2712 23.648 42.9017 24.2785 42.9017 25.0564V28.7052C42.9017 29.4831 42.2712 30.1137 41.4933 30.1137Z" fill="#23F1A8"/>
<path d="M42.9015 25.0557V28.705C42.9015 29.4826 42.2706 30.1135 41.493 30.1135H37.8438C38.6226 30.1135 39.2522 29.4826 39.2522 28.705V25.0557C39.2522 24.2782 38.6226 23.6473 37.8438 23.6473H41.493C42.2706 23.6473 42.9015 24.2784 42.9015 25.0557Z" fill="#26D192"/>
<path d="M14.2184 24.9859H5.61293C5.02941 24.9859 4.55664 24.513 4.55664 23.9296C4.55664 23.3462 5.02955 22.8733 5.61293 22.8733H14.2184C14.8019 22.8733 15.2747 23.3462 15.2747 23.9296C15.2747 24.513 14.8019 24.9859 14.2184 24.9859Z" fill="#0B9ED8"/>
<path d="M14.2184 28.9553H5.61293C5.02941 28.9553 4.55664 28.4823 4.55664 27.899C4.55664 27.3156 5.02955 26.8427 5.61293 26.8427H14.2184C14.8019 26.8427 15.2747 27.3156 15.2747 27.899C15.2747 28.4823 14.8019 28.9553 14.2184 28.9553Z" fill="#0B9ED8"/>
<path d="M14.2184 32.9246H5.61293C5.02941 32.9246 4.55664 32.4517 4.55664 31.8683C4.55664 31.2849 5.02955 30.812 5.61293 30.812H14.2184C14.8019 30.812 15.2747 31.2849 15.2747 31.8683C15.2747 32.4517 14.8019 32.9246 14.2184 32.9246Z" fill="#0B9ED8"/>
<path d="M10.0902 19.3817C7.65715 19.3817 5.67773 17.4023 5.67773 14.9692C5.67773 12.5362 7.65715 10.5568 10.0902 10.5568C11.2433 10.5568 12.3339 10.9988 13.1616 11.8013C13.567 12.1945 13.5914 12.837 13.217 13.2598L10.8714 15.9094C10.4848 16.3463 9.81717 16.3869 9.38035 16.0002C8.94354 15.6136 8.90293 14.946 9.28971 14.5092L10.8152 12.7857C10.5842 12.7093 10.34 12.6693 10.0902 12.6693C8.82213 12.6693 7.79045 13.701 7.79045 14.9691C7.79045 16.2372 8.82213 17.2688 10.0902 17.2688C10.9708 17.2688 11.7609 16.7777 12.1523 15.9874C12.4111 15.4644 13.045 15.2505 13.5676 15.5095C14.0904 15.7685 14.3044 16.4022 14.0455 16.925C13.2952 18.4404 11.7796 19.3817 10.0902 19.3817Z" fill="#C9F0FD"/>
<path d="M29.7186 11.25H26.9918C26.4083 11.25 25.9355 10.7771 25.9355 10.1938C25.9355 9.61037 26.4085 9.13746 26.9918 9.13746H29.7186C30.3021 9.13746 30.7748 9.61037 30.7748 10.1938C30.7748 10.7771 30.3021 11.25 29.7186 11.25Z" fill="#CECECE"/>
<path d="M39.4368 15.3917H26.9918C26.4083 15.3917 25.9355 14.9188 25.9355 14.3354C25.9355 13.752 26.4085 13.2791 26.9918 13.2791H39.4368C40.0203 13.2791 40.4931 13.752 40.4931 14.3354C40.4931 14.9188 40.0202 15.3917 39.4368 15.3917Z" fill="#CECECE"/>
<path d="M39.4368 18.6884H26.9918C26.4083 18.6884 25.9355 18.2155 25.9355 17.6321C25.9355 17.0487 26.4085 16.5758 26.9918 16.5758H39.4368C40.0203 16.5758 40.4931 17.0487 40.4931 17.6321C40.4931 18.2155 40.0202 18.6884 39.4368 18.6884Z" fill="#CECECE"/>
<path d="M56.6354 19.4195C59.45 19.4195 61.7317 17.1378 61.7317 14.3232C61.7317 11.5086 59.45 9.22685 56.6354 9.22685C53.8208 9.22685 51.5391 11.5086 51.5391 14.3232C51.5391 17.1378 53.8208 19.4195 56.6354 19.4195Z" fill="#23F1A8"/>
<path d="M61.7327 14.3233C61.7327 17.1371 59.4508 19.419 56.6358 19.419C55.9618 19.419 55.3174 19.2873 54.7272 19.0483C57.0335 18.7113 58.8053 16.724 58.8053 14.3233C58.8053 11.9214 57.0323 9.9341 54.7246 9.59708C55.3147 9.35824 55.9604 9.22644 56.6358 9.22644C59.4508 9.22644 61.7327 11.5081 61.7327 14.3233Z" fill="#26D192"/>
<path d="M55.933 16.5745C55.6627 16.5745 55.3923 16.4713 55.186 16.2651L54.2 15.2791C53.7875 14.8666 53.7875 14.1978 54.2 13.7852C54.6126 13.3727 55.2813 13.3727 55.694 13.7852L55.933 14.0243L57.5765 12.3807C57.9891 11.9682 58.6578 11.9682 59.0706 12.3807C59.4831 12.7932 59.4831 13.462 59.0706 13.8746L56.6801 16.2651C56.4736 16.4713 56.2033 16.5745 55.933 16.5745Z" fill="#17998C"/>
</svg>
