<svg width="82" height="70" viewBox="0 0 82 70" fill="none" xmlns="http://www.w3.org/2000/svg">
<path d="M77.3734 0.814026H4.07374C2.27471 0.814026 0.816406 2.27233 0.816406 4.07136V50.345C0.816406 52.144 2.27471 53.603 4.07374 53.603H77.3734C79.1724 53.603 80.6307 52.144 80.6307 50.345V4.07136C80.6307 2.27233 79.1724 0.814026 77.3734 0.814026Z" fill="#72C2E9"/>
<path d="M75.4512 5.99414V48.4222H5.99678V5.99414H75.4512Z" fill="#EFEFEF"/>
<path d="M48.7761 63.8114H32.6719L35.5448 53.6029H45.9031L48.7761 63.8114Z" fill="#72C2E9"/>
<path d="M46.7422 56.5899H34.7031L35.5435 53.6029H45.9018L46.7422 56.5899Z" fill="#4BA5C8"/>
<path d="M56.2774 67.0687V69.186H25.1699V67.0687C25.1699 65.2707 26.6292 63.8114 28.4273 63.8114H53.0201C54.8181 63.8114 56.2774 65.2707 56.2774 67.0687Z" fill="#72C2E9"/>
<path d="M26.2438 16.4185H17.8008L17.8027 13.9752C17.8034 13.1534 18.4698 12.4873 19.2917 12.4873H23.6483C24.1767 12.4873 24.6972 12.3596 25.1656 12.115L26.9851 11.1648C27.9057 13.0029 27.5216 15.0576 26.2438 16.4185Z" fill="#7C7B7A"/>
<path d="M22.0233 23.7478C19.6923 23.7478 17.8027 21.8583 17.8027 19.5273V16.4185H26.2441V19.5273C26.2438 21.8583 24.3542 23.7478 22.0233 23.7478Z" fill="#FFB69F"/>
<path d="M30.1363 28.6661V33.8456H13.7812V28.6661C13.7812 25.9511 15.9845 23.7479 18.6995 23.7479H25.2181C27.9327 23.7479 30.1363 25.9511 30.1363 28.6661Z" fill="#FC5D3D"/>
<path d="M63.1632 16.3645L52.3554 27.2082L46.5215 13.0518C48.3195 12.3091 50.2902 11.8987 52.3554 11.8987C56.5736 11.8987 60.3945 13.6055 63.1632 16.3645Z" fill="#FC5D3D"/>
<path d="M67.3359 24.0355L52.3555 27.2082L63.1633 16.3645C65.2284 18.4231 66.7105 21.0713 67.3359 24.0355Z" fill="#72C2E9"/>
<path d="M58.8897 41.0551L52.3555 27.2082L67.3359 24.0355C68.8056 31.0271 65.2776 38.0375 58.8897 41.0551Z" fill="#F0C020"/>
<path d="M52.3563 27.2081L45.6364 40.9638C40.5485 38.4752 37.0469 33.2505 37.0469 27.2081C37.0469 20.8172 40.9622 15.3449 46.5224 13.0518L52.3563 27.2081Z" fill="#7D7B79"/>
<path d="M58.8908 41.055C56.9103 41.9931 54.6954 42.5176 52.3566 42.5176C49.9462 42.5176 47.6628 41.9606 45.6367 40.9638L52.3566 27.2081L58.8908 41.055Z" fill="#13BF6D"/>
<path d="M72.5185 46.4834H14.2954C13.8455 46.4834 13.481 46.1189 13.481 45.6691C13.481 45.2192 13.8455 44.8547 14.2954 44.8547H71.7042V9.10425C71.7042 8.65441 72.0687 8.28992 72.5185 8.28992C72.9683 8.28992 73.3328 8.65441 73.3328 9.10425V45.6691C73.3328 46.1189 72.9683 46.4834 72.5185 46.4834ZM11.038 46.4834H8.92761C8.47778 46.4834 8.11328 46.1189 8.11328 45.6691C8.11328 45.2192 8.47778 44.8547 8.92761 44.8547H11.038C11.4879 44.8547 11.8524 45.2192 11.8524 45.6691C11.8524 46.1189 11.4879 46.4834 11.038 46.4834Z" fill="white"/>
<path d="M5.99793 19.8372C6.44767 19.8372 6.81226 19.4726 6.81226 19.0228C6.81226 18.5731 6.44767 18.2085 5.99793 18.2085C5.54818 18.2085 5.18359 18.5731 5.18359 19.0228C5.18359 19.4726 5.54818 19.8372 5.99793 19.8372Z" fill="black"/>
<path d="M80.6307 33.0033C80.1812 33.0033 79.8164 33.3714 79.8164 33.8209C79.8164 34.2671 80.1812 34.632 80.6307 34.632C81.077 34.632 81.4418 34.2671 81.4418 33.8209C81.4418 33.3714 81.077 33.0033 80.6307 33.0033Z" fill="black"/>
<path d="M32.3358 70C32.7856 70 33.1501 69.6354 33.1501 69.1857C33.1501 68.7359 32.7856 68.3713 32.3358 68.3713C31.8861 68.3713 31.5215 68.7359 31.5215 69.1857C31.5215 69.6354 31.8861 70 32.3358 70Z" fill="black"/>
<path d="M5.18359 48.4234C5.18359 48.873 5.54646 49.2345 5.99793 49.2345H75.4507C75.9071 49.2345 76.265 48.8668 76.265 48.4234V5.99347C76.265 5.55047 75.9106 5.17914 75.4507 5.17914H5.99793C5.5546 5.17914 5.18359 5.53516 5.18359 5.99347V15.7655C5.18359 16.215 5.54841 16.5798 5.99793 16.5798C6.44744 16.5798 6.81226 16.215 6.81226 15.7655V6.8078H74.6364V47.6091H6.81226V22.2801C6.81226 21.8306 6.44744 21.4658 5.99793 21.4658C5.54841 21.4658 5.18359 21.8306 5.18359 22.2801V48.4234Z" fill="black"/>
<path d="M0 50.3453C0.00358306 52.5896 1.82736 54.4169 4.07166 54.4169H34.4691L32.0547 62.9967H28.427C26.1824 63 24.3554 64.8241 24.3554 67.0684V69.1857C24.3554 69.6394 24.7254 70 25.1697 70H29.0785C29.528 70 29.8928 69.6352 29.8928 69.1857C29.8928 68.7362 29.528 68.3713 29.0785 68.3713H25.984V67.0684C25.9873 65.7231 27.0818 64.6287 28.427 64.6254H53.0199C54.3651 64.6287 55.4596 65.7231 55.4629 67.0684V68.3713H35.5932C35.1436 68.3713 34.7788 68.7362 34.7788 69.1857C34.7788 69.6352 35.1436 70 35.5932 70H56.2772C56.7231 70 57.0915 69.6427 57.0915 69.1857V67.0684C57.0915 64.8241 55.2642 63 53.0199 62.9967H49.3922L46.9778 54.4169H77.3749C79.6195 54.4169 81.4433 52.5896 81.4433 50.3453V37.0749C81.4433 36.6287 81.0785 36.2638 80.6322 36.2638C80.1827 36.2638 79.8179 36.6287 79.8179 37.0749V50.3453C79.8147 51.6906 78.7169 52.785 77.3749 52.7883H4.07166C2.72964 52.785 1.63225 51.6906 1.62866 50.3453V4.07166C1.63225 2.72638 2.72964 1.62866 4.07166 1.62866H77.3746C78.7166 1.62866 79.8143 2.72638 79.8176 4.07166V30.5603C79.8176 31.0098 80.1824 31.3779 80.6319 31.3779C81.0814 31.3779 81.4463 31.0098 81.4463 30.5603C81.4463 30.5603 81.4463 30.557 81.443 30.557V4.07166C81.443 1.82736 79.6189 0 77.3746 0H4.07166C1.82736 0 0 1.82736 0 4.07166V50.3453ZM33.7469 62.9967L36.1612 54.4173H45.2863L47.7006 62.9967H33.7469Z" fill="black"/>
<path d="M12.9668 28.6661V33.8456C12.9668 34.2954 13.3313 34.6599 13.7811 34.6599C14.231 34.6599 14.5955 34.2954 14.5955 33.8456V28.6661C14.5955 26.4033 16.4365 24.5622 18.6997 24.5622H25.2179C27.4808 24.5622 29.3222 26.4033 29.3222 28.6661V33.8456C29.3222 34.2954 29.6867 34.6599 30.1365 34.6599C30.5863 34.6599 30.9508 34.2954 30.9508 33.8456V28.6661C30.9508 25.6668 28.6342 23.2026 25.6971 22.958C26.5378 22.0577 27.057 20.8534 27.057 19.5274V16.7199C28.4205 15.0749 28.7108 12.7958 27.7134 10.8013C27.5043 10.3827 27.0062 10.2414 26.6091 10.443L24.7883 11.3941C24.4398 11.5765 24.0456 11.6743 23.6482 11.6743H19.2929C18.0225 11.6743 16.9899 12.7068 16.9899 13.9739C16.9863 16.727 16.987 15.2844 16.987 19.5274C16.987 20.8505 17.5039 22.0524 18.3414 22.9518C15.3476 23.1381 12.9668 25.6261 12.9668 28.6661ZM18.6157 19.5274V17.2345H25.428V19.5274C25.428 21.4055 23.9 22.9339 22.0218 22.9339C20.1437 22.9339 18.6157 21.4055 18.6157 19.5274ZM19.2929 13.3029H23.6479C24.8287 13.3029 25.5026 12.8586 26.5534 12.3094C26.8622 13.5078 26.573 14.7078 25.8704 15.6042H18.6153L18.6186 13.9772C18.6186 13.6059 18.9212 13.3029 19.2929 13.3029Z" fill="black"/>
<path d="M30.1362 37.0781H13.7811C13.3316 37.0781 12.9668 37.4429 12.9668 37.8925C12.9668 38.3387 13.3316 38.7068 13.7811 38.7068H30.1362C30.5857 38.7068 30.9505 38.3387 30.9505 37.8925C30.9505 37.4429 30.5857 37.0781 30.1362 37.0781Z" fill="black"/>
<path d="M30.1362 40.8241H13.7811C13.3316 40.8241 12.9668 41.1889 12.9668 41.6384C12.9668 42.0847 13.3316 42.4495 13.7811 42.4495H30.1362C30.5857 42.4495 30.9505 42.0847 30.9505 41.6384C30.9505 41.1889 30.5857 40.8241 30.1362 40.8241Z" fill="black"/>
<path d="M52.3562 43.3319C54.7643 43.3319 57.0793 42.8136 59.2373 41.7915C59.2373 41.7915 59.2376 41.7915 59.238 41.7911C65.8266 38.6791 69.7008 31.3257 68.1334 23.8687C68.1334 23.868 68.1334 23.8677 68.1334 23.867C66.623 16.7104 60.2731 11.084 52.3562 11.084C43.5696 11.084 36.2324 18.1622 36.2324 27.2078C36.2324 36.3413 43.6591 43.3319 52.3562 43.3319ZM63.15 17.5322C64.6666 19.2218 65.7591 21.2293 66.3494 23.412C62.3207 24.2651 59.0754 24.9524 54.8653 25.8442C57.3643 23.3368 55.6477 25.0589 63.15 17.5322ZM46.7344 40.5713L52.3435 29.0892C55.5774 35.9423 54.0262 32.6547 57.7972 40.6465C56.0735 41.3482 54.2471 41.7032 52.3562 41.7032C50.394 41.7032 48.5067 41.3227 46.7344 40.5713ZM59.2692 39.9495L53.5318 27.7915C57.8862 26.869 62.2448 25.9462 66.6845 25.0058C67.6227 31.17 64.5106 37.099 59.2692 39.9495ZM52.3562 12.713C55.9461 12.713 59.3389 14.01 61.9966 16.3824C53.7373 24.669 54.034 24.3716 52.6432 25.767L47.594 13.5146C49.1204 12.9824 50.7187 12.713 52.3562 12.713ZM37.8611 27.2081C37.8611 21.5866 41.0643 16.541 46.0884 14.1361C48.9591 21.1022 48.5982 20.2263 51.4637 27.1797C50.0363 30.1012 46.7106 36.9097 45.2722 39.8543C40.68 37.2889 37.8611 32.5149 37.8611 27.2081Z" fill="black"/>
</svg>
