<svg width="70" height="70" viewBox="0 0 70 70" fill="none" xmlns="http://www.w3.org/2000/svg">
<path d="M2.1875 2.1875H43.75V10.9375H2.1875V2.1875Z" fill="#FCD770"/>
<path d="M2.1875 10.9375H43.75V37.1875H2.1875V10.9375Z" fill="#E6E9ED"/>
<path d="M32.8125 15.3125H37.1875V32.8125H32.8125V15.3125Z" fill="#EF7385"/>
<path d="M24.0625 24.0625H28.4375V32.8125H24.0625V24.0625Z" fill="#EF7385"/>
<path d="M19.6875 19.6875V32.8125H17.5C16.2969 32.8125 15.3125 33.7969 15.3125 35V19.6875H19.6875Z" fill="#EF7385"/>
<path d="M6.5625 26.25H10.9375V32.8125H6.5625V26.25Z" fill="#EF7385"/>
<path d="M39.375 37.1875V43.75C39.375 44.9531 38.3906 45.9375 37.1875 45.9375H32.8125V50.3125L24.0625 45.9375H17.5C16.2969 45.9375 15.3125 44.9531 15.3125 43.75V37.1875V35C15.3125 33.7969 16.2969 32.8125 17.5 32.8125H19.6875H24.0625H28.4375H32.8125H37.1875C38.3906 32.8125 39.375 33.7969 39.375 35V37.1875Z" fill="#FFEAA7"/>
<path d="M65.8875 56.6125C67.0797 57.7937 67.8125 59.4344 67.8125 61.25C67.8125 64.8703 64.8703 67.8125 61.25 67.8125H54.6875V54.6875H57.9688H61.25C61.9719 54.6875 62.6719 54.8078 63.3172 55.0266C64.3016 55.3438 65.1766 55.8906 65.8875 56.6125Z" fill="#AAB2BD"/>
<path d="M17.5 61.25V67.8125L10.9375 64.5312V57.9688L17.5 54.6875V61.25Z" fill="#AAB2BD"/>
<path d="M17.5 61.25H50.3125V67.8125H17.5V61.25Z" fill="#EF7385"/>
<path d="M17.5 54.6875H50.3125V61.25H17.5V54.6875Z" fill="#FCD770"/>
<path d="M54.6875 54.6875V67.8125H50.3125V61.25V54.6875H52.5H54.6875Z" fill="#E6E9ED"/>
<path d="M10.9375 57.9688V64.5312L4.375 61.25L10.9375 57.9688Z" fill="#E6E9ED"/>
<path d="M63.4375 39.375V54.6875L63.3172 55.0266C62.6719 54.8078 61.9719 54.6875 61.25 54.6875H57.9688V36.0938H63.4375V39.375Z" fill="#CF9E76"/>
<path d="M57.9688 36.0938V54.6875H54.6875H52.5V39.375V36.0938H57.9688Z" fill="#CF9E76"/>
<path d="M61.25 28.4375L64.0828 21.8312C66.3578 23.625 67.8125 26.4031 67.8125 29.5312V36.0937C67.8125 37.9094 66.3469 39.375 64.5312 39.375H63.4375V36.0937H57.9688H52.5V39.375H51.4062C49.5906 39.375 48.125 37.9094 48.125 36.0937V29.5312C48.125 26.8187 49.2297 24.3469 51.0125 22.575C51.275 22.3125 51.5594 22.0609 51.8547 21.8312L54.6875 28.4375L57.9688 25.1562L61.25 28.4375Z" fill="#FCD770"/>
<path d="M61.9285 20.5297L57.9691 25.1562L54.0098 20.5297C55.2238 19.9828 56.5582 19.6875 57.9691 19.6875C59.3801 19.6875 60.7145 19.9828 61.9285 20.5297Z" fill="#F0D0B4"/>
<path d="M64.0828 21.8203V21.8313L61.25 28.4375L57.9688 25.1563L61.9281 20.5297C62.7047 20.8578 63.4266 21.2953 64.0828 21.8203Z" fill="#E6E9ED"/>
<path d="M54.0102 20.5297L57.9695 25.1562L54.6883 28.4375L51.8555 21.8312V21.8203C52.5117 21.2953 53.2336 20.8578 54.0102 20.5297Z" fill="#E6E9ED"/>
<path d="M62.0484 7.98438C63.5578 9.1875 64.5312 11.0469 64.5312 13.125C64.5312 16.7453 61.5891 19.6875 57.9688 19.6875C54.3484 19.6875 51.4062 16.7453 51.4062 13.125C51.4062 11.0469 52.3797 9.1875 53.8891 7.98438C55.1906 8.4 56.6672 8.75 57.9688 8.75C59.2703 8.75 60.7469 8.4 62.0484 7.98438Z" fill="#F0D0B4"/>
<path d="M65.625 2.1875V6.5625C65.625 6.5625 64.0391 7.36094 62.0484 7.98438C60.7469 8.4 59.2703 8.75 57.9688 8.75C56.6672 8.75 55.1906 8.4 53.8891 7.98438C51.8984 7.36094 50.3125 6.5625 50.3125 6.5625V2.1875H65.625Z" fill="#969FAA"/>
<path d="M66.7191 7.23844V3.28125H68.9066V1.09375H47.0316V3.28125H49.2191V7.23844L49.8239 7.54031C49.9027 7.57969 50.7284 7.98656 51.9119 8.44812C50.8848 9.77375 50.3128 11.4045 50.3128 13.125C50.3128 15.7609 51.6527 18.0906 53.687 19.4688C49.7791 21.1378 47.0316 25.0195 47.0316 29.5312V36.0938C47.0316 38.5066 48.9938 40.4688 51.4066 40.4688V53.5938H17.2422L1.92969 61.25L17.2422 68.9062H61.2503C65.4711 68.9062 68.9066 65.4708 68.9066 61.25C68.9066 58.2039 67.1139 55.5756 64.5316 54.343V40.4688C66.9444 40.4688 68.9066 38.5066 68.9066 36.0938V29.5312C68.9066 25.0195 66.1591 21.1378 62.2511 19.4688C64.2855 18.0906 65.6253 15.7609 65.6253 13.125C65.6253 11.4045 65.0533 9.77484 64.0262 8.44812C65.2097 7.98766 66.0355 7.57969 66.1142 7.54031L66.7191 7.23844ZM60.0537 21.0427L57.9691 23.4752L55.8844 21.0427C56.5538 20.8786 57.2494 20.7812 57.9691 20.7812C58.6888 20.7812 59.3844 20.8786 60.0537 21.0427ZM62.2128 21.8859C62.39 21.9855 62.5628 22.0916 62.7334 22.202L60.8817 26.5212L59.4587 25.0983L62.2128 21.8859ZM55.0564 26.5212L53.2047 22.202C53.3742 22.0916 53.547 21.9844 53.7253 21.8859L56.4794 25.0994L55.0564 26.5212ZM53.5941 37.1875H56.8753V53.5938H53.5941V37.1875ZM49.2191 60.1562H18.5941V55.7812H49.2191V60.1562ZM16.4066 66.0428L12.0316 63.8553V58.6447L16.4066 56.4572V66.0428ZM18.5941 62.3438H49.2191V66.7188H18.5941V62.3438ZM51.4066 55.7812H53.5941V66.7188H51.4066V55.7812ZM9.84406 59.7384V62.7616L6.82094 61.25L9.84406 59.7384ZM66.7191 61.25C66.7191 64.2655 64.2658 66.7188 61.2503 66.7188H55.7816V55.7812H61.2503C64.2658 55.7812 66.7191 58.2345 66.7191 61.25ZM61.2503 53.5938H59.0628V37.1875H62.3441V53.6813C61.9853 53.6298 61.6222 53.5938 61.2503 53.5938ZM66.7191 29.5312V36.0938C66.7191 37.3002 65.738 38.2812 64.5316 38.2812V29.5312H62.3441V35H53.5941V29.5312H51.4066V38.2812C50.2002 38.2812 49.2191 37.3002 49.2191 36.0938V29.5312C49.2191 27.2891 50.0744 25.247 51.4667 23.6972L54.3192 30.3538L57.9691 26.7039L61.6189 30.3538L64.4714 23.6972C65.8638 25.247 66.7191 27.2891 66.7191 29.5312ZM63.4378 13.125C63.4378 16.1405 60.9845 18.5938 57.9691 18.5938C54.9536 18.5938 52.5003 16.1405 52.5003 13.125C52.5003 11.6353 53.0986 10.2375 54.1541 9.21156C55.3933 9.56922 56.7397 9.84375 57.9691 9.84375C59.1984 9.84375 60.5448 9.56922 61.7841 9.21156C62.8395 10.2375 63.4378 11.6353 63.4378 13.125ZM57.9691 7.65625C55.6678 7.65625 52.6709 6.43344 51.4066 5.86578V3.28125H64.5316V5.86578C63.2683 6.43344 60.2758 7.65625 57.9691 7.65625Z" fill="black"/>
<path d="M5.46875 5.46875H7.65625V7.65625H5.46875V5.46875Z" fill="black"/>
<path d="M9.84375 5.46875H12.0312V7.65625H9.84375V5.46875Z" fill="black"/>
<path d="M14.2188 5.46875H16.4062V7.65625H14.2188V5.46875Z" fill="black"/>
<path d="M14.2188 43.75C14.2188 45.5591 15.6909 47.0312 17.5 47.0312H23.8044L33.9062 52.0822V47.0312H37.1875C38.9966 47.0312 40.4688 45.5591 40.4688 43.75V38.2812H44.8438V1.09375H1.09375V38.2812H14.2188V43.75ZM18.5938 31.7188H17.5C17.115 31.7188 16.7497 31.7975 16.4062 31.92V20.7812H18.5938V31.7188ZM38.2812 43.75C38.2812 44.3537 37.7912 44.8438 37.1875 44.8438H31.7188V48.5428L24.3206 44.8438H17.5C16.8962 44.8438 16.4062 44.3537 16.4062 43.75V35C16.4062 34.3963 16.8962 33.9062 17.5 33.9062H37.1875C37.7912 33.9062 38.2812 34.3963 38.2812 35V43.75ZM27.3438 31.7188H25.1562V25.1562H27.3438V31.7188ZM36.0938 31.7188H33.9062V16.4062H36.0938V31.7188ZM42.6562 3.28125V9.84375H3.28125V3.28125H42.6562ZM3.28125 36.0938V12.0312H42.6562V36.0938H40.4688V35C40.4688 33.5759 39.5511 32.3728 38.2812 31.92V14.2188H31.7188V31.7188H29.5312V22.9688H22.9688V31.7188H20.7812V18.5938H14.2188V35V36.0938H3.28125Z" fill="black"/>
<path d="M18.5938 36.0938H36.0938V38.2812H18.5938V36.0938Z" fill="black"/>
<path d="M18.5938 40.4688H31.7188V42.6562H18.5938V40.4688Z" fill="black"/>
<path d="M33.9062 40.4688H36.0938V42.6562H33.9062V40.4688Z" fill="black"/>
<path d="M5.46875 33.9062H12.0312V25.1562H5.46875V33.9062ZM7.65625 27.3438H9.84375V31.7188H7.65625V27.3438Z" fill="black"/>
</svg>
