<svg width="70" height="70" viewBox="0 0 70 70" fill="none" xmlns="http://www.w3.org/2000/svg">
<path d="M61.7793 8.83449V54.3065C61.7793 57.0644 59.5252 59.3185 56.7672 59.3185H6.38125C3.62329 59.3185 1.36914 57.0644 1.36914 54.3065V8.83449H61.7793Z" fill="#E3E2FF"/>
<path d="M61.7723 8.83704V54.3107C61.7723 57.0657 59.5265 59.3115 56.7713 59.3115H6.38344C4.72517 59.3115 3.2368 58.4889 2.33594 57.2354C2.81888 57.3921 3.34136 57.4835 3.87658 57.4835H54.2645C57.0193 57.4835 59.2782 55.2246 59.2782 52.4696V8.83704H61.7723Z" fill="#CFCFF6"/>
<path d="M56.5529 50.2214V21.7341C56.5529 19.5949 54.8188 17.8608 52.6796 17.8608H10.469C8.32986 17.8608 6.5957 19.5949 6.5957 21.7341V50.2214C6.5957 52.3606 8.32986 54.0947 10.469 54.0947H52.6796C54.8188 54.0947 56.5529 52.3606 56.5529 50.2214Z" fill="#CFCFF6"/>
<path d="M56.3496 20.4942C55.9187 20.3244 55.4488 20.233 54.9655 20.233H12.7517C10.6102 20.233 8.88655 21.9566 8.88655 24.0979V52.5842C8.88655 53.0282 8.96497 53.459 9.09567 53.8508C7.63312 53.2892 6.60156 51.8791 6.60156 50.2209V21.7346C6.60156 19.5932 8.32519 17.8566 10.4667 17.8566H52.6805C54.3911 17.8566 55.8402 18.9534 56.3496 20.4942Z" fill="#C1C1EE"/>
<path d="M61.7755 14.3351V6.14792C61.7755 3.3932 59.5217 1.13934 56.7669 1.13934H6.38171C3.62694 1.13934 1.37305 3.39323 1.37305 6.148V14.3351H61.7755Z" fill="#A04747"/>
<path d="M61.7708 6.14728V14.3341H59.3812V6.14728C59.3812 3.39225 57.1224 1.1334 54.3672 1.1334H56.7698C59.525 1.1334 61.7708 3.39225 61.7708 6.14728Z" fill="#7F3939"/>
<path d="M10.6132 7.9764C10.6132 9.40627 9.46403 10.5555 8.03408 10.5555C6.61767 10.5555 5.45508 9.40627 5.45508 7.9764C5.45508 6.54653 6.61767 5.39732 8.03408 5.39732C9.46403 5.39732 10.6132 6.54653 10.6132 7.9764Z" fill="#F9B938"/>
<path d="M10.6118 7.97302C10.6118 9.41121 9.46548 10.5574 8.03805 10.5574C7.07578 10.5574 6.23231 10.0276 5.78906 9.23823C6.16737 9.46526 6.60006 9.58419 7.06496 9.58419C8.49239 9.58419 9.63853 8.43798 9.63853 6.99986C9.63853 6.5349 9.5196 6.11316 9.30339 5.73466C10.0819 6.16722 10.6118 7.01062 10.6118 7.97302Z" fill="#ECB021"/>
<path d="M17.5722 7.9764C17.5722 9.40627 16.423 10.5555 14.9931 10.5555C13.5767 10.5555 12.4141 9.40627 12.4141 7.9764C12.4141 6.54653 13.5767 5.39732 14.9931 5.39732C16.423 5.39732 17.5722 6.54653 17.5722 7.9764Z" fill="#FB6559"/>
<path d="M17.5727 7.97302C17.5727 9.41121 16.4264 10.5574 14.999 10.5574C14.0367 10.5574 13.1933 10.0276 12.75 9.23823C13.1283 9.46526 13.561 9.58419 14.0259 9.58419C15.4533 9.58419 16.5995 8.43798 16.5995 6.99986C16.5995 6.5349 16.4805 6.11316 16.2643 5.73466C17.0429 6.16722 17.5727 7.01062 17.5727 7.97302Z" fill="#EF5543"/>
<path d="M24.5332 7.9764C24.5332 9.40627 23.384 10.5555 21.954 10.5555C20.5376 10.5555 19.375 9.40627 19.375 7.9764C19.375 6.54653 20.5376 5.39732 21.954 5.39732C23.384 5.39732 24.5332 6.54653 24.5332 7.9764Z" fill="#00D57F"/>
<path d="M24.5336 7.97302C24.5336 9.41121 23.3874 10.5574 21.9599 10.5574C20.9977 10.5574 20.1542 10.0276 19.7109 9.23823C20.0892 9.46526 20.5219 9.58419 20.9868 9.58419C22.4143 9.58419 23.5604 8.43798 23.5604 6.99986C23.5604 6.5349 23.4415 6.11316 23.2253 5.73466C24.0038 6.16722 24.5336 7.01062 24.5336 7.97302Z" fill="#00C079"/>
<path d="M57.1483 8.17042C57.1483 9.13663 56.3649 9.90704 55.4118 9.90704H36.2957C35.3426 9.90704 34.5723 9.13663 34.5723 8.17042C34.5723 7.21728 35.3426 6.44688 36.2957 6.44688H55.4118C56.3649 6.44688 57.1483 7.21728 57.1483 8.17042Z" fill="white"/>
<path d="M57.1098 7.88888C56.813 7.53256 56.3378 7.30981 55.8328 7.30981H36.7043C35.7543 7.30981 34.9822 8.0819 34.9822 9.03214C34.9822 9.136 34.997 9.22517 35.0119 9.32902C34.7299 9.01728 34.5664 8.61638 34.5664 8.17098C34.5664 7.22073 35.3385 6.44865 36.2886 6.44865H55.4022C56.2635 6.44865 56.9761 7.0723 57.1098 7.88888Z" fill="#E3E2FF"/>
<g opacity="0.4">
<path d="M3.03906 39.0956V25.3744C3.03906 24.8496 3.46482 24.4239 3.98959 24.4239C4.51435 24.4239 4.94011 24.8496 4.94011 25.3744V39.0956C4.94011 39.6204 4.51435 40.0461 3.98959 40.0461C3.46482 40.0461 3.03906 39.6204 3.03906 39.0956Z" fill="white"/>
</g>
<g opacity="0.4">
<path d="M3.03906 46.5811V42.7953C3.03906 42.2706 3.46482 41.8448 3.98959 41.8448C4.51435 41.8448 4.94011 42.2706 4.94011 42.7953V46.5811C4.94011 47.1059 4.51435 47.5316 3.98959 47.5316C3.46482 47.5316 3.03906 47.1059 3.03906 46.5811Z" fill="white"/>
</g>
<g opacity="0.4">
<path d="M40.7801 3.9763H28.8901C28.4353 3.9763 28.0664 3.60736 28.0664 3.15263C28.0664 2.69789 28.4353 2.32896 28.8901 2.32896H40.7801C41.2348 2.32896 41.6038 2.69789 41.6038 3.15263C41.6038 3.60736 41.2348 3.9763 40.7801 3.9763Z" fill="white"/>
</g>
<path d="M28.2683 30.8311C28.2683 33.47 27.1041 35.8316 25.2636 37.4282V37.4393C25.075 37.6056 24.8755 37.7608 24.6649 37.916C23.2124 38.9693 21.4274 39.6013 19.4982 39.6013C17.8018 39.6013 16.2164 39.1135 14.8746 38.2708C14.7195 38.1821 14.5755 38.0935 14.4312 37.9937C14.2206 37.8384 14.0211 37.6832 13.8213 37.5169C11.9254 35.9092 10.7168 33.5144 10.7168 30.8311C10.7168 25.9859 14.6529 22.061 19.4982 22.061C24.3322 22.061 28.2683 25.9859 28.2683 30.8311Z" fill="#E3E2FF"/>
<path d="M22.991 28.3794V30.8577H15.7852V28.3794C15.7852 26.3895 17.3982 24.7765 19.3881 24.7765C21.3779 24.7765 22.991 26.3895 22.991 28.3794Z" fill="#2D2C2C"/>
<path d="M25.2646 37.4282V37.4393C25.0759 37.6056 24.8764 37.7608 24.6658 37.9161C23.2133 38.9694 21.4284 39.6014 19.4992 39.6014C17.8028 39.6014 16.2173 39.1135 14.8755 38.2709C14.7204 38.1821 14.5764 38.0935 14.4321 37.9937C14.2215 37.8384 14.022 37.6833 13.8223 37.5169C13.8223 37.5058 13.8334 37.4947 13.8334 37.4836C14.1566 36.2243 15.3319 35.0552 16.7939 34.8892C16.8269 34.8781 17.0156 34.8781 17.3147 34.8781C17.4479 34.867 17.6033 34.867 17.7806 34.867H18.2461H18.2683H21.3285C21.4947 34.867 21.6612 34.867 21.7941 34.8781C22.0934 34.8781 22.2932 34.8781 22.3154 34.8892C22.8584 34.9557 23.3576 35.1553 23.7899 35.4436C23.8121 35.4658 23.8454 35.4768 23.8675 35.499C23.923 35.5323 23.9672 35.5655 24.0227 35.6099H24.0338C24.5341 36.1073 25.0356 36.5685 25.2202 37.3063C25.2424 37.3396 25.2535 37.3839 25.2646 37.4282Z" fill="#FB6559"/>
<path d="M21.7918 34.8751V34.9768C21.7918 36.2108 20.789 37.2136 19.5551 37.2136C18.3212 37.2136 17.3184 36.2108 17.3184 34.9768V34.8751C17.4524 34.8705 17.6095 34.8705 17.7805 34.8705C18.7833 34.8613 20.3269 34.8613 21.3297 34.8705C21.5007 34.8705 21.6578 34.8705 21.7918 34.8751Z" fill="#EF5543"/>
<path d="M23.8672 35.499C23.9227 35.5323 23.9668 35.5655 24.0223 35.6099H24.0334C24.5262 36.0997 25.0329 36.559 25.2198 37.3063C25.242 37.3396 25.2531 37.3839 25.2642 37.4282C25.2753 37.4282 25.2642 37.4393 25.2642 37.4393C25.0755 37.6056 24.876 37.7608 24.6655 37.9161V37.7498C24.6655 36.8489 24.251 35.8828 23.8672 35.499Z" fill="#EF5543"/>
<path d="M20.8688 33.8425L20.8688 34.9748C20.8687 35.7001 20.2808 36.2881 19.5555 36.2881C18.8302 36.2881 18.2422 35.7001 18.2422 34.9748L18.2422 33.8425C18.6476 34.1268 19.0332 34.2964 19.5555 34.2964C20.0777 34.2964 20.4633 34.1268 20.8688 33.8425Z" fill="#F7C9A9"/>
<path d="M20.8671 33.8446V34.9768C20.8671 35.3835 20.6823 35.7486 20.3911 35.9889C20.4096 35.9057 20.4188 35.8179 20.4188 35.7301C20.4188 35.2708 20.0015 34.9056 19.5528 35.0042C19.414 35.0347 19.2667 35.0508 19.1064 35.0508C18.7782 35.0508 18.501 34.9814 18.2422 34.8613V33.8446C18.6489 34.1265 19.0324 34.2975 19.5547 34.2975C20.0769 34.2975 20.4651 34.1265 20.8671 33.8446Z" fill="#E8AA80"/>
<path d="M22.5229 30.1651V31.5654C22.5229 33.2291 21.1781 34.5739 19.5144 34.5739C18.6825 34.5739 17.9292 34.2365 17.3839 33.6912C16.8432 33.1505 16.5059 32.3972 16.5059 31.5654V30.35L16.8109 29.5089C16.8155 29.4072 16.8941 29.3194 16.9957 29.2963C17.3423 29.2316 18.128 29.0144 18.6132 28.3535C18.701 28.2334 18.8766 28.2195 18.9737 28.3304C19.3295 28.7463 20.2353 29.4904 22.0654 29.3517C22.204 29.3378 22.3196 29.4442 22.3196 29.5782L22.5229 30.1651Z" fill="#F7C9A9"/>
<path d="M22.5243 31.2135V31.5659C22.5243 33.2275 21.1754 34.5764 19.5138 34.5764C18.6829 34.5764 17.9309 34.2398 17.3867 33.6956C16.8424 33.1487 16.5059 32.3967 16.5059 31.5659V31.2135C16.5059 32.0444 16.8424 32.7964 17.3867 33.3432C17.9309 33.8875 18.6829 34.224 19.5138 34.224C21.1754 34.224 22.5243 32.8752 22.5243 31.2135Z" fill="#F0B68E"/>
<path d="M22.5234 29.3248V31.569C23.1329 31.556 23.6241 31.0594 23.6241 30.4469C23.6241 29.8343 23.1329 29.3378 22.5234 29.3248Z" fill="#F7C9A9"/>
<path d="M16.5031 29.3248V31.569C15.8936 31.556 15.4023 31.0594 15.4023 30.4469C15.4023 29.8343 15.8936 29.3378 16.5031 29.3248Z" fill="#F7C9A9"/>
<path d="M23.6225 30.4458C23.6225 31.0584 23.1334 31.5554 22.5234 31.5685V31.3608C23.094 31.3477 23.562 30.9112 23.6172 30.3512C23.6198 30.3827 23.6225 30.4143 23.6225 30.4458Z" fill="#F0B68E"/>
<path d="M16.506 31.3608V31.5685C15.896 31.5554 15.4043 31.0584 15.4043 30.4458C15.4043 30.4143 15.4069 30.3827 15.4096 30.3512C15.4674 30.9112 15.9328 31.3477 16.506 31.3608Z" fill="#F0B68E"/>
<path d="M19.9409 31.8626C20.0195 31.9751 20.0219 32.1478 19.9299 32.278C19.8448 32.4137 19.6777 32.4838 19.515 32.4994C19.3509 32.4854 19.1841 32.4134 19.0987 32.2785C19.0067 32.1479 19.0091 31.9753 19.0884 31.8626C19.1674 31.9737 19.2607 32.0231 19.3273 32.0506C19.3991 32.0749 19.4541 32.0951 19.514 32.0799C19.5751 32.096 19.6298 32.0742 19.7023 32.0508C19.7689 32.0233 19.8626 31.9739 19.9409 31.8626Z" fill="#E8AA80"/>
<path d="M21.2179 30.8312C21.2179 31.0561 21.0357 31.2398 20.8108 31.2398C20.586 31.2398 20.4023 31.0561 20.4023 30.8312C20.4023 30.6064 20.586 30.4227 20.8108 30.4227C21.0357 30.4227 21.2179 30.6064 21.2179 30.8312Z" fill="#2D2C2C"/>
<path d="M18.6242 30.8312C18.6242 31.0561 18.4419 31.2398 18.2171 31.2398C17.9923 31.2398 17.8086 31.0561 17.8086 30.8312C17.8086 30.6064 17.9923 30.4227 18.2171 30.4227C18.4419 30.4227 18.6242 30.6064 18.6242 30.8312Z" fill="#2D2C2C"/>
<path d="M18.7159 33.0296C18.6131 33.0296 18.5497 33.1491 18.6135 33.2297C18.8241 33.4962 19.1473 33.6685 19.5134 33.6685C19.8794 33.6685 20.2034 33.4963 20.4147 33.2299C20.4787 33.1493 20.4153 33.0296 20.3125 33.0296H18.7159Z" fill="#E8AA80"/>
<path d="M22.9122 31.0804C22.8274 31.0804 22.744 31.0503 22.677 30.9895C22.5335 30.8589 22.5239 30.6374 22.6538 30.4945C22.688 30.4576 22.6483 30.3687 22.6483 30.3687C22.569 30.1958 22.6401 29.9873 22.811 29.9039C22.9819 29.8178 23.1856 29.8848 23.2731 30.0536C23.3716 30.243 23.4604 30.6483 23.1706 30.9662C23.1022 31.0421 23.0065 31.0804 22.9122 31.0804Z" fill="#F0B68E"/>
<path d="M16.15 31.0803C16.0543 31.0803 15.9599 31.0414 15.8902 30.9648C15.6045 30.6483 15.6906 30.2436 15.7877 30.055C15.8752 29.8834 16.0843 29.8143 16.2593 29.9025C16.4289 29.99 16.4972 30.1971 16.4138 30.368C16.4111 30.3749 16.3769 30.4596 16.4097 30.4959C16.5396 30.6387 16.5287 30.8602 16.3851 30.9901C16.3181 31.0503 16.2334 31.0803 16.15 31.0803Z" fill="#F0B68E"/>
<path d="M51.3023 24.161H34.9836C34.4039 24.161 33.9336 23.6907 33.9336 23.111C33.9336 22.5313 34.4039 22.061 34.9836 22.061H51.3023C51.882 22.061 52.3523 22.5313 52.3523 23.111C52.3523 23.6907 51.882 24.161 51.3023 24.161Z" fill="white"/>
<path d="M51.3023 29.3078H34.9836C34.4039 29.3078 33.9336 28.8375 33.9336 28.2578C33.9336 27.6781 34.4039 27.2078 34.9836 27.2078H51.3023C51.882 27.2078 52.3523 27.6781 52.3523 28.2578C52.3523 28.8375 51.882 29.3078 51.3023 29.3078Z" fill="white"/>
<path d="M51.3023 34.4546H34.9836C34.4039 34.4546 33.9336 33.9842 33.9336 33.4046C33.9336 32.8249 34.4039 32.3546 34.9836 32.3546H51.3023C51.882 32.3546 52.3523 32.8249 52.3523 33.4046C52.3523 33.9842 51.882 34.4546 51.3023 34.4546Z" fill="white"/>
<path d="M40.0377 39.6013H34.9836C34.4039 39.6013 33.9336 39.131 33.9336 38.5513C33.9336 37.9717 34.4039 37.5013 34.9836 37.5013H40.0377C40.6174 37.5013 41.0877 37.9717 41.0877 38.5513C41.0877 39.131 40.6174 39.6013 40.0377 39.6013Z" fill="white"/>
<path d="M33.4089 44.7481H11.8098C11.2301 44.7481 10.7598 44.2778 10.7598 43.6981C10.7598 43.1184 11.2301 42.6481 11.8098 42.6481H33.4089C33.9885 42.6481 34.4589 43.1184 34.4589 43.6981C34.4589 44.2778 33.9885 44.7481 33.4089 44.7481Z" fill="white"/>
<path d="M21.5782 49.8949H11.8098C11.2301 49.8949 10.7598 49.4246 10.7598 48.8449C10.7598 48.2652 11.2301 47.7949 11.8098 47.7949H21.5782C22.1579 47.7949 22.6282 48.2652 22.6282 48.8449C22.6282 49.4246 22.1579 49.8949 21.5782 49.8949Z" fill="white"/>
<path d="M68.6241 42.6663L68.6241 47.2197C68.6241 56.0753 63.749 64.2117 55.9405 68.3887L55.4583 68.6466C54.9178 68.9357 54.2687 68.9357 53.7283 68.6466L53.2461 68.3887C45.4375 64.2117 40.5625 56.0753 40.5625 47.2197V42.6663C40.5625 41.688 41.3327 40.882 42.3104 40.8445C46.3741 40.6883 50.0883 39.2233 53.4598 36.4425C54.1127 35.9039 55.0739 35.9039 55.7268 36.4425C59.0983 39.2233 62.8125 40.6883 66.8762 40.8445C67.8539 40.882 68.6241 41.688 68.6241 42.6663Z" fill="#F8B838"/>
<path d="M68.6292 42.6712V47.2198C68.6292 56.0769 63.752 64.2138 55.9437 68.3833L55.4634 68.6486C54.9202 68.9393 54.2631 68.9393 53.7326 68.6486L53.2396 68.3833C50.8771 67.1199 48.7668 65.4899 46.998 63.582C48.5015 64.9972 50.2074 66.2227 52.0773 67.2209L52.5573 67.4736C53.1008 67.7642 53.7452 67.7642 54.2884 67.4736L54.7684 67.2209C62.577 63.0387 67.4539 54.9018 67.4539 46.0448V41.4962C67.4539 41.2941 67.4163 41.1045 67.3531 40.9276C68.0983 41.155 68.6292 41.85 68.6292 42.6712Z" fill="#EBAF21"/>
<path d="M64.5962 43.3358C65.3532 43.4452 65.9313 44.0631 65.9313 44.828V47.2146C65.9313 55.0918 61.6225 62.2958 54.6745 66.0122L54.5936 66.0526L54.5127 66.0122C47.5647 62.2958 43.2559 55.0918 43.2559 47.2146V44.828C43.2559 44.0631 43.8339 43.4452 44.591 43.3358C47.8374 42.8667 50.8935 41.6306 53.7103 39.6417C54.244 39.2649 54.9432 39.2649 55.4769 39.6417C58.2937 41.6306 61.3498 42.8667 64.5962 43.3358Z" fill="#F9B938"/>
<path d="M64.5962 43.3358C65.3532 43.4452 65.9313 44.0631 65.9313 44.828V47.2146C65.9313 55.0918 61.6225 62.2958 54.6745 66.0122L54.5936 66.0526L54.5127 66.0122C47.5647 62.2958 43.2559 55.0918 43.2559 47.2146V44.828C43.2559 44.0631 43.8339 43.4452 44.591 43.3358C47.8374 42.8667 50.8935 41.6306 53.7103 39.6417C54.244 39.2649 54.9432 39.2649 55.4769 39.6417C58.2937 41.6306 61.3498 42.8667 64.5962 43.3358Z" fill="#00D57F"/>
<g opacity="0.3">
<path d="M55.5493 62.2945C55.3642 61.9996 55.4543 61.6097 55.7504 61.4246C56.6721 60.8484 57.5334 60.1673 58.3107 59.4023C58.5575 59.1592 58.9598 59.1604 59.2041 59.4097C59.4484 59.6577 59.4459 60.0575 59.1967 60.303C58.3539 61.1322 57.4199 61.87 56.4192 62.4956C56.1278 62.6795 55.7352 62.5934 55.5493 62.2945Z" fill="white"/>
</g>
<g opacity="0.3">
<path d="M60.1952 58.2351C59.9089 58.0352 59.8398 57.6403 60.041 57.3553C61.4315 55.3749 62.3261 53.0577 62.6284 50.6553C62.6728 50.3074 62.9862 50.0631 63.3342 50.1075C63.6797 50.1507 63.9252 50.4665 63.882 50.8133C63.5538 53.4192 62.584 55.9326 61.0749 58.0808C60.8695 58.3725 60.4731 58.4318 60.1952 58.2351Z" fill="white"/>
</g>
<path d="M55.4757 39.6389C55.678 39.7778 55.8801 39.9168 56.0821 40.0432C55.8295 40.0684 55.5895 40.1569 55.3622 40.3085C52.5446 42.3048 49.4994 43.543 46.2524 44.0105C45.4942 44.1116 44.9131 44.7307 44.9131 45.5014V47.8894C44.9131 55.243 48.6782 62.0279 54.8439 65.9068C54.7934 65.9448 54.7304 65.97 54.6672 66.008L54.5913 66.0585L54.5154 66.008C47.5662 62.2933 43.2578 55.0914 43.2578 47.2198V44.8318C43.2578 44.0611 43.8263 43.4419 44.5845 43.3409C47.8318 42.8608 50.8894 41.6351 53.7069 39.6389C54.2375 39.2598 54.9451 39.2598 55.4757 39.6389Z" fill="#00AE68"/>
<g opacity="0.3">
<g opacity="0.4">
<path d="M42.0221 50.6721C41.7576 50.6721 41.543 50.4575 41.543 50.193V46.2539C41.543 45.9894 41.7576 45.7747 42.0221 45.7747C42.2866 45.7747 42.5013 45.9894 42.5013 46.2539V50.193C42.5013 50.4575 42.2866 50.6721 42.0221 50.6721Z" fill="white"/>
</g>
<g opacity="0.4">
<path d="M42.0221 44.3425C41.7576 44.3425 41.543 44.1279 41.543 43.8633V42.7509C41.543 42.4864 41.7576 42.2718 42.0221 42.2718C42.2866 42.2718 42.5013 42.4864 42.5013 42.7509V43.8633C42.5013 44.1279 42.2866 44.3425 42.0221 44.3425Z" fill="white"/>
</g>
</g>
<path d="M53.2884 55.5008C52.9669 55.5008 52.6596 55.3732 52.4326 55.1462L50.1866 52.9002C49.7138 52.4274 49.7138 51.6615 50.1866 51.1888C50.6594 50.716 51.4253 50.716 51.898 51.1888L53.2884 52.5791L57.2888 48.578C57.7616 48.1052 58.5275 48.1052 59.0003 48.578C59.4731 49.0508 59.4731 49.8167 59.0003 50.2894L54.1441 55.1462C53.9172 55.3732 53.6098 55.5008 53.2884 55.5008Z" fill="white"/>
</svg>
